<?xml version="1.0" encoding="utf-8" standalone="no"?>
<!DOCTYPE svg PUBLIC "-//W3C//DTD SVG 1.1//EN"
  "http://www.w3.org/Graphics/SVG/1.1/DTD/svg11.dtd">
<!-- Created with matplotlib (http://matplotlib.org/) -->
<svg height="360pt" version="1.1" viewBox="0 0 864 360" width="864pt" xmlns="http://www.w3.org/2000/svg" xmlns:xlink="http://www.w3.org/1999/xlink">
 <defs>
  <style type="text/css">
*{stroke-linecap:butt;stroke-linejoin:round;}
  </style>
 </defs>
 <g id="figure_1">
  <g id="patch_1">
   <path d="M 0 360 
L 864 360 
L 864 0 
L 0 0 
z
" style="fill:#ffffff;"/>
  </g>
  <g id="axes_1">
   <g id="patch_2">
    <path d="M 108 320.4 
L 777.6 320.4 
L 777.6 43.2 
L 108 43.2 
z
" style="fill:#ffffff;"/>
   </g>
   <g id="matplotlib.axis_1">
    <g id="xtick_1">
     <g id="line2d_1">
      <defs>
       <path d="M 0 0 
L 0 3.5 
" id="m81042d8ed5" style="stroke:#000000;stroke-width:0.8;"/>
      </defs>
      <g>
       <use style="stroke:#000000;stroke-width:0.8;" x="132.660601" xlink:href="#m81042d8ed5" y="320.4"/>
      </g>
     </g>
     <g id="text_1">
      <!-- 0 -->
      <defs>
       <path d="M 31.78125 66.40625 
Q 24.171875 66.40625 20.328125 58.90625 
Q 16.5 51.421875 16.5 36.375 
Q 16.5 21.390625 20.328125 13.890625 
Q 24.171875 6.390625 31.78125 6.390625 
Q 39.453125 6.390625 43.28125 13.890625 
Q 47.125 21.390625 47.125 36.375 
Q 47.125 51.421875 43.28125 58.90625 
Q 39.453125 66.40625 31.78125 66.40625 
z
M 31.78125 74.21875 
Q 44.046875 74.21875 50.515625 64.515625 
Q 56.984375 54.828125 56.984375 36.375 
Q 56.984375 17.96875 50.515625 8.265625 
Q 44.046875 -1.421875 31.78125 -1.421875 
Q 19.53125 -1.421875 13.0625 8.265625 
Q 6.59375 17.96875 6.59375 36.375 
Q 6.59375 54.828125 13.0625 64.515625 
Q 19.53125 74.21875 31.78125 74.21875 
z
" id="DejaVuSans-30"/>
      </defs>
      <g transform="translate(129.479351 334.998438)scale(0.1 -0.1)">
       <use xlink:href="#DejaVuSans-30"/>
      </g>
     </g>
    </g>
    <g id="xtick_2">
     <g id="line2d_2">
      <g>
       <use style="stroke:#000000;stroke-width:0.8;" x="210.475897" xlink:href="#m81042d8ed5" y="320.4"/>
      </g>
     </g>
     <g id="text_2">
      <!-- 5 -->
      <defs>
       <path d="M 10.796875 72.90625 
L 49.515625 72.90625 
L 49.515625 64.59375 
L 19.828125 64.59375 
L 19.828125 46.734375 
Q 21.96875 47.46875 24.109375 47.828125 
Q 26.265625 48.1875 28.421875 48.1875 
Q 40.625 48.1875 47.75 41.5 
Q 54.890625 34.8125 54.890625 23.390625 
Q 54.890625 11.625 47.5625 5.09375 
Q 40.234375 -1.421875 26.90625 -1.421875 
Q 22.3125 -1.421875 17.546875 -0.640625 
Q 12.796875 0.140625 7.71875 1.703125 
L 7.71875 11.625 
Q 12.109375 9.234375 16.796875 8.0625 
Q 21.484375 6.890625 26.703125 6.890625 
Q 35.15625 6.890625 40.078125 11.328125 
Q 45.015625 15.765625 45.015625 23.390625 
Q 45.015625 31 40.078125 35.4375 
Q 35.15625 39.890625 26.703125 39.890625 
Q 22.75 39.890625 18.8125 39.015625 
Q 14.890625 38.140625 10.796875 36.28125 
z
" id="DejaVuSans-35"/>
      </defs>
      <g transform="translate(207.294647 334.998438)scale(0.1 -0.1)">
       <use xlink:href="#DejaVuSans-35"/>
      </g>
     </g>
    </g>
    <g id="xtick_3">
     <g id="line2d_3">
      <g>
       <use style="stroke:#000000;stroke-width:0.8;" x="288.291193" xlink:href="#m81042d8ed5" y="320.4"/>
      </g>
     </g>
     <g id="text_3">
      <!-- 10 -->
      <defs>
       <path d="M 12.40625 8.296875 
L 28.515625 8.296875 
L 28.515625 63.921875 
L 10.984375 60.40625 
L 10.984375 69.390625 
L 28.421875 72.90625 
L 38.28125 72.90625 
L 38.28125 8.296875 
L 54.390625 8.296875 
L 54.390625 0 
L 12.40625 0 
z
" id="DejaVuSans-31"/>
      </defs>
      <g transform="translate(281.928693 334.998438)scale(0.1 -0.1)">
       <use xlink:href="#DejaVuSans-31"/>
       <use x="63.623047" xlink:href="#DejaVuSans-30"/>
      </g>
     </g>
    </g>
    <g id="xtick_4">
     <g id="line2d_4">
      <g>
       <use style="stroke:#000000;stroke-width:0.8;" x="366.106489" xlink:href="#m81042d8ed5" y="320.4"/>
      </g>
     </g>
     <g id="text_4">
      <!-- 15 -->
      <g transform="translate(359.743989 334.998438)scale(0.1 -0.1)">
       <use xlink:href="#DejaVuSans-31"/>
       <use x="63.623047" xlink:href="#DejaVuSans-35"/>
      </g>
     </g>
    </g>
    <g id="xtick_5">
     <g id="line2d_5">
      <g>
       <use style="stroke:#000000;stroke-width:0.8;" x="443.921785" xlink:href="#m81042d8ed5" y="320.4"/>
      </g>
     </g>
     <g id="text_5">
      <!-- 20 -->
      <defs>
       <path d="M 19.1875 8.296875 
L 53.609375 8.296875 
L 53.609375 0 
L 7.328125 0 
L 7.328125 8.296875 
Q 12.9375 14.109375 22.625 23.890625 
Q 32.328125 33.6875 34.8125 36.53125 
Q 39.546875 41.84375 41.421875 45.53125 
Q 43.3125 49.21875 43.3125 52.78125 
Q 43.3125 58.59375 39.234375 62.25 
Q 35.15625 65.921875 28.609375 65.921875 
Q 23.96875 65.921875 18.8125 64.3125 
Q 13.671875 62.703125 7.8125 59.421875 
L 7.8125 69.390625 
Q 13.765625 71.78125 18.9375 73 
Q 24.125 74.21875 28.421875 74.21875 
Q 39.75 74.21875 46.484375 68.546875 
Q 53.21875 62.890625 53.21875 53.421875 
Q 53.21875 48.921875 51.53125 44.890625 
Q 49.859375 40.875 45.40625 35.40625 
Q 44.1875 33.984375 37.640625 27.21875 
Q 31.109375 20.453125 19.1875 8.296875 
z
" id="DejaVuSans-32"/>
      </defs>
      <g transform="translate(437.559285 334.998438)scale(0.1 -0.1)">
       <use xlink:href="#DejaVuSans-32"/>
       <use x="63.623047" xlink:href="#DejaVuSans-30"/>
      </g>
     </g>
    </g>
    <g id="xtick_6">
     <g id="line2d_6">
      <g>
       <use style="stroke:#000000;stroke-width:0.8;" x="521.737081" xlink:href="#m81042d8ed5" y="320.4"/>
      </g>
     </g>
     <g id="text_6">
      <!-- 25 -->
      <g transform="translate(515.374581 334.998438)scale(0.1 -0.1)">
       <use xlink:href="#DejaVuSans-32"/>
       <use x="63.623047" xlink:href="#DejaVuSans-35"/>
      </g>
     </g>
    </g>
    <g id="xtick_7">
     <g id="line2d_7">
      <g>
       <use style="stroke:#000000;stroke-width:0.8;" x="599.552377" xlink:href="#m81042d8ed5" y="320.4"/>
      </g>
     </g>
     <g id="text_7">
      <!-- 30 -->
      <defs>
       <path d="M 40.578125 39.3125 
Q 47.65625 37.796875 51.625 33 
Q 55.609375 28.21875 55.609375 21.1875 
Q 55.609375 10.40625 48.1875 4.484375 
Q 40.765625 -1.421875 27.09375 -1.421875 
Q 22.515625 -1.421875 17.65625 -0.515625 
Q 12.796875 0.390625 7.625 2.203125 
L 7.625 11.71875 
Q 11.71875 9.328125 16.59375 8.109375 
Q 21.484375 6.890625 26.8125 6.890625 
Q 36.078125 6.890625 40.9375 10.546875 
Q 45.796875 14.203125 45.796875 21.1875 
Q 45.796875 27.640625 41.28125 31.265625 
Q 36.765625 34.90625 28.71875 34.90625 
L 20.21875 34.90625 
L 20.21875 43.015625 
L 29.109375 43.015625 
Q 36.375 43.015625 40.234375 45.921875 
Q 44.09375 48.828125 44.09375 54.296875 
Q 44.09375 59.90625 40.109375 62.90625 
Q 36.140625 65.921875 28.71875 65.921875 
Q 24.65625 65.921875 20.015625 65.03125 
Q 15.375 64.15625 9.8125 62.3125 
L 9.8125 71.09375 
Q 15.4375 72.65625 20.34375 73.4375 
Q 25.25 74.21875 29.59375 74.21875 
Q 40.828125 74.21875 47.359375 69.109375 
Q 53.90625 64.015625 53.90625 55.328125 
Q 53.90625 49.265625 50.4375 45.09375 
Q 46.96875 40.921875 40.578125 39.3125 
z
" id="DejaVuSans-33"/>
      </defs>
      <g transform="translate(593.189877 334.998438)scale(0.1 -0.1)">
       <use xlink:href="#DejaVuSans-33"/>
       <use x="63.623047" xlink:href="#DejaVuSans-30"/>
      </g>
     </g>
    </g>
    <g id="xtick_8">
     <g id="line2d_8">
      <g>
       <use style="stroke:#000000;stroke-width:0.8;" x="677.367673" xlink:href="#m81042d8ed5" y="320.4"/>
      </g>
     </g>
     <g id="text_8">
      <!-- 35 -->
      <g transform="translate(671.005173 334.998438)scale(0.1 -0.1)">
       <use xlink:href="#DejaVuSans-33"/>
       <use x="63.623047" xlink:href="#DejaVuSans-35"/>
      </g>
     </g>
    </g>
    <g id="xtick_9">
     <g id="line2d_9">
      <g>
       <use style="stroke:#000000;stroke-width:0.8;" x="755.18297" xlink:href="#m81042d8ed5" y="320.4"/>
      </g>
     </g>
     <g id="text_9">
      <!-- 40 -->
      <defs>
       <path d="M 37.796875 64.3125 
L 12.890625 25.390625 
L 37.796875 25.390625 
z
M 35.203125 72.90625 
L 47.609375 72.90625 
L 47.609375 25.390625 
L 58.015625 25.390625 
L 58.015625 17.1875 
L 47.609375 17.1875 
L 47.609375 0 
L 37.796875 0 
L 37.796875 17.1875 
L 4.890625 17.1875 
L 4.890625 26.703125 
z
" id="DejaVuSans-34"/>
      </defs>
      <g transform="translate(748.82047 334.998438)scale(0.1 -0.1)">
       <use xlink:href="#DejaVuSans-34"/>
       <use x="63.623047" xlink:href="#DejaVuSans-30"/>
      </g>
     </g>
    </g>
    <g id="text_10">
     <!-- Iteration (thousands) -->
     <defs>
      <path d="M 9.8125 72.90625 
L 19.671875 72.90625 
L 19.671875 0 
L 9.8125 0 
z
" id="DejaVuSans-49"/>
      <path d="M 18.3125 70.21875 
L 18.3125 54.6875 
L 36.8125 54.6875 
L 36.8125 47.703125 
L 18.3125 47.703125 
L 18.3125 18.015625 
Q 18.3125 11.328125 20.140625 9.421875 
Q 21.96875 7.515625 27.59375 7.515625 
L 36.8125 7.515625 
L 36.8125 0 
L 27.59375 0 
Q 17.1875 0 13.234375 3.875 
Q 9.28125 7.765625 9.28125 18.015625 
L 9.28125 47.703125 
L 2.6875 47.703125 
L 2.6875 54.6875 
L 9.28125 54.6875 
L 9.28125 70.21875 
z
" id="DejaVuSans-74"/>
      <path d="M 56.203125 29.59375 
L 56.203125 25.203125 
L 14.890625 25.203125 
Q 15.484375 15.921875 20.484375 11.0625 
Q 25.484375 6.203125 34.421875 6.203125 
Q 39.59375 6.203125 44.453125 7.46875 
Q 49.3125 8.734375 54.109375 11.28125 
L 54.109375 2.78125 
Q 49.265625 0.734375 44.1875 -0.34375 
Q 39.109375 -1.421875 33.890625 -1.421875 
Q 20.796875 -1.421875 13.15625 6.1875 
Q 5.515625 13.8125 5.515625 26.8125 
Q 5.515625 40.234375 12.765625 48.109375 
Q 20.015625 56 32.328125 56 
Q 43.359375 56 49.78125 48.890625 
Q 56.203125 41.796875 56.203125 29.59375 
z
M 47.21875 32.234375 
Q 47.125 39.59375 43.09375 43.984375 
Q 39.0625 48.390625 32.421875 48.390625 
Q 24.90625 48.390625 20.390625 44.140625 
Q 15.875 39.890625 15.1875 32.171875 
z
" id="DejaVuSans-65"/>
      <path d="M 41.109375 46.296875 
Q 39.59375 47.171875 37.8125 47.578125 
Q 36.03125 48 33.890625 48 
Q 26.265625 48 22.1875 43.046875 
Q 18.109375 38.09375 18.109375 28.8125 
L 18.109375 0 
L 9.078125 0 
L 9.078125 54.6875 
L 18.109375 54.6875 
L 18.109375 46.1875 
Q 20.953125 51.171875 25.484375 53.578125 
Q 30.03125 56 36.53125 56 
Q 37.453125 56 38.578125 55.875 
Q 39.703125 55.765625 41.0625 55.515625 
z
" id="DejaVuSans-72"/>
      <path d="M 34.28125 27.484375 
Q 23.390625 27.484375 19.1875 25 
Q 14.984375 22.515625 14.984375 16.5 
Q 14.984375 11.71875 18.140625 8.90625 
Q 21.296875 6.109375 26.703125 6.109375 
Q 34.1875 6.109375 38.703125 11.40625 
Q 43.21875 16.703125 43.21875 25.484375 
L 43.21875 27.484375 
z
M 52.203125 31.203125 
L 52.203125 0 
L 43.21875 0 
L 43.21875 8.296875 
Q 40.140625 3.328125 35.546875 0.953125 
Q 30.953125 -1.421875 24.3125 -1.421875 
Q 15.921875 -1.421875 10.953125 3.296875 
Q 6 8.015625 6 15.921875 
Q 6 25.140625 12.171875 29.828125 
Q 18.359375 34.515625 30.609375 34.515625 
L 43.21875 34.515625 
L 43.21875 35.40625 
Q 43.21875 41.609375 39.140625 45 
Q 35.0625 48.390625 27.6875 48.390625 
Q 23 48.390625 18.546875 47.265625 
Q 14.109375 46.140625 10.015625 43.890625 
L 10.015625 52.203125 
Q 14.9375 54.109375 19.578125 55.046875 
Q 24.21875 56 28.609375 56 
Q 40.484375 56 46.34375 49.84375 
Q 52.203125 43.703125 52.203125 31.203125 
z
" id="DejaVuSans-61"/>
      <path d="M 9.421875 54.6875 
L 18.40625 54.6875 
L 18.40625 0 
L 9.421875 0 
z
M 9.421875 75.984375 
L 18.40625 75.984375 
L 18.40625 64.59375 
L 9.421875 64.59375 
z
" id="DejaVuSans-69"/>
      <path d="M 30.609375 48.390625 
Q 23.390625 48.390625 19.1875 42.75 
Q 14.984375 37.109375 14.984375 27.296875 
Q 14.984375 17.484375 19.15625 11.84375 
Q 23.34375 6.203125 30.609375 6.203125 
Q 37.796875 6.203125 41.984375 11.859375 
Q 46.1875 17.53125 46.1875 27.296875 
Q 46.1875 37.015625 41.984375 42.703125 
Q 37.796875 48.390625 30.609375 48.390625 
z
M 30.609375 56 
Q 42.328125 56 49.015625 48.375 
Q 55.71875 40.765625 55.71875 27.296875 
Q 55.71875 13.875 49.015625 6.21875 
Q 42.328125 -1.421875 30.609375 -1.421875 
Q 18.84375 -1.421875 12.171875 6.21875 
Q 5.515625 13.875 5.515625 27.296875 
Q 5.515625 40.765625 12.171875 48.375 
Q 18.84375 56 30.609375 56 
z
" id="DejaVuSans-6f"/>
      <path d="M 54.890625 33.015625 
L 54.890625 0 
L 45.90625 0 
L 45.90625 32.71875 
Q 45.90625 40.484375 42.875 44.328125 
Q 39.84375 48.1875 33.796875 48.1875 
Q 26.515625 48.1875 22.3125 43.546875 
Q 18.109375 38.921875 18.109375 30.90625 
L 18.109375 0 
L 9.078125 0 
L 9.078125 54.6875 
L 18.109375 54.6875 
L 18.109375 46.1875 
Q 21.34375 51.125 25.703125 53.5625 
Q 30.078125 56 35.796875 56 
Q 45.21875 56 50.046875 50.171875 
Q 54.890625 44.34375 54.890625 33.015625 
z
" id="DejaVuSans-6e"/>
      <path id="DejaVuSans-20"/>
      <path d="M 31 75.875 
Q 24.46875 64.65625 21.28125 53.65625 
Q 18.109375 42.671875 18.109375 31.390625 
Q 18.109375 20.125 21.3125 9.0625 
Q 24.515625 -2 31 -13.1875 
L 23.1875 -13.1875 
Q 15.875 -1.703125 12.234375 9.375 
Q 8.59375 20.453125 8.59375 31.390625 
Q 8.59375 42.28125 12.203125 53.3125 
Q 15.828125 64.359375 23.1875 75.875 
z
" id="DejaVuSans-28"/>
      <path d="M 54.890625 33.015625 
L 54.890625 0 
L 45.90625 0 
L 45.90625 32.71875 
Q 45.90625 40.484375 42.875 44.328125 
Q 39.84375 48.1875 33.796875 48.1875 
Q 26.515625 48.1875 22.3125 43.546875 
Q 18.109375 38.921875 18.109375 30.90625 
L 18.109375 0 
L 9.078125 0 
L 9.078125 75.984375 
L 18.109375 75.984375 
L 18.109375 46.1875 
Q 21.34375 51.125 25.703125 53.5625 
Q 30.078125 56 35.796875 56 
Q 45.21875 56 50.046875 50.171875 
Q 54.890625 44.34375 54.890625 33.015625 
z
" id="DejaVuSans-68"/>
      <path d="M 8.5 21.578125 
L 8.5 54.6875 
L 17.484375 54.6875 
L 17.484375 21.921875 
Q 17.484375 14.15625 20.5 10.265625 
Q 23.53125 6.390625 29.59375 6.390625 
Q 36.859375 6.390625 41.078125 11.03125 
Q 45.3125 15.671875 45.3125 23.6875 
L 45.3125 54.6875 
L 54.296875 54.6875 
L 54.296875 0 
L 45.3125 0 
L 45.3125 8.40625 
Q 42.046875 3.421875 37.71875 1 
Q 33.40625 -1.421875 27.6875 -1.421875 
Q 18.265625 -1.421875 13.375 4.4375 
Q 8.5 10.296875 8.5 21.578125 
z
M 31.109375 56 
z
" id="DejaVuSans-75"/>
      <path d="M 44.28125 53.078125 
L 44.28125 44.578125 
Q 40.484375 46.53125 36.375 47.5 
Q 32.28125 48.484375 27.875 48.484375 
Q 21.1875 48.484375 17.84375 46.4375 
Q 14.5 44.390625 14.5 40.28125 
Q 14.5 37.15625 16.890625 35.375 
Q 19.28125 33.59375 26.515625 31.984375 
L 29.59375 31.296875 
Q 39.15625 29.25 43.1875 25.515625 
Q 47.21875 21.78125 47.21875 15.09375 
Q 47.21875 7.46875 41.1875 3.015625 
Q 35.15625 -1.421875 24.609375 -1.421875 
Q 20.21875 -1.421875 15.453125 -0.5625 
Q 10.6875 0.296875 5.421875 2 
L 5.421875 11.28125 
Q 10.40625 8.6875 15.234375 7.390625 
Q 20.0625 6.109375 24.8125 6.109375 
Q 31.15625 6.109375 34.5625 8.28125 
Q 37.984375 10.453125 37.984375 14.40625 
Q 37.984375 18.0625 35.515625 20.015625 
Q 33.0625 21.96875 24.703125 23.78125 
L 21.578125 24.515625 
Q 13.234375 26.265625 9.515625 29.90625 
Q 5.8125 33.546875 5.8125 39.890625 
Q 5.8125 47.609375 11.28125 51.796875 
Q 16.75 56 26.8125 56 
Q 31.78125 56 36.171875 55.265625 
Q 40.578125 54.546875 44.28125 53.078125 
z
" id="DejaVuSans-73"/>
      <path d="M 45.40625 46.390625 
L 45.40625 75.984375 
L 54.390625 75.984375 
L 54.390625 0 
L 45.40625 0 
L 45.40625 8.203125 
Q 42.578125 3.328125 38.25 0.953125 
Q 33.9375 -1.421875 27.875 -1.421875 
Q 17.96875 -1.421875 11.734375 6.484375 
Q 5.515625 14.40625 5.515625 27.296875 
Q 5.515625 40.1875 11.734375 48.09375 
Q 17.96875 56 27.875 56 
Q 33.9375 56 38.25 53.625 
Q 42.578125 51.265625 45.40625 46.390625 
z
M 14.796875 27.296875 
Q 14.796875 17.390625 18.875 11.75 
Q 22.953125 6.109375 30.078125 6.109375 
Q 37.203125 6.109375 41.296875 11.75 
Q 45.40625 17.390625 45.40625 27.296875 
Q 45.40625 37.203125 41.296875 42.84375 
Q 37.203125 48.484375 30.078125 48.484375 
Q 22.953125 48.484375 18.875 42.84375 
Q 14.796875 37.203125 14.796875 27.296875 
z
" id="DejaVuSans-64"/>
      <path d="M 8.015625 75.875 
L 15.828125 75.875 
Q 23.140625 64.359375 26.78125 53.3125 
Q 30.421875 42.28125 30.421875 31.390625 
Q 30.421875 20.453125 26.78125 9.375 
Q 23.140625 -1.703125 15.828125 -13.1875 
L 8.015625 -13.1875 
Q 14.5 -2 17.703125 9.0625 
Q 20.90625 20.125 20.90625 31.390625 
Q 20.90625 42.671875 17.703125 53.65625 
Q 14.5 64.65625 8.015625 75.875 
z
" id="DejaVuSans-29"/>
     </defs>
     <g transform="translate(390.127344 348.676562)scale(0.1 -0.1)">
      <use xlink:href="#DejaVuSans-49"/>
      <use x="29.492188" xlink:href="#DejaVuSans-74"/>
      <use x="68.701172" xlink:href="#DejaVuSans-65"/>
      <use x="130.224609" xlink:href="#DejaVuSans-72"/>
      <use x="171.337891" xlink:href="#DejaVuSans-61"/>
      <use x="232.617188" xlink:href="#DejaVuSans-74"/>
      <use x="271.826172" xlink:href="#DejaVuSans-69"/>
      <use x="299.609375" xlink:href="#DejaVuSans-6f"/>
      <use x="360.791016" xlink:href="#DejaVuSans-6e"/>
      <use x="424.169922" xlink:href="#DejaVuSans-20"/>
      <use x="455.957031" xlink:href="#DejaVuSans-28"/>
      <use x="494.970703" xlink:href="#DejaVuSans-74"/>
      <use x="534.179688" xlink:href="#DejaVuSans-68"/>
      <use x="597.558594" xlink:href="#DejaVuSans-6f"/>
      <use x="658.740234" xlink:href="#DejaVuSans-75"/>
      <use x="722.119141" xlink:href="#DejaVuSans-73"/>
      <use x="774.21875" xlink:href="#DejaVuSans-61"/>
      <use x="835.498047" xlink:href="#DejaVuSans-6e"/>
      <use x="898.876953" xlink:href="#DejaVuSans-64"/>
      <use x="962.353516" xlink:href="#DejaVuSans-73"/>
      <use x="1014.453125" xlink:href="#DejaVuSans-29"/>
     </g>
    </g>
   </g>
   <g id="matplotlib.axis_2">
    <g id="ytick_1">
     <g id="line2d_10">
      <defs>
       <path d="M 0 0 
L -3.5 0 
" id="m514581fb06" style="stroke:#000000;stroke-width:0.8;"/>
      </defs>
      <g>
       <use style="stroke:#000000;stroke-width:0.8;" x="108" xlink:href="#m514581fb06" y="307.8"/>
      </g>
     </g>
     <g id="text_11">
      <!-- 0 -->
      <g transform="translate(94.6375 311.599219)scale(0.1 -0.1)">
       <use xlink:href="#DejaVuSans-30"/>
      </g>
     </g>
    </g>
    <g id="ytick_2">
     <g id="line2d_11">
      <g>
       <use style="stroke:#000000;stroke-width:0.8;" x="108" xlink:href="#m514581fb06" y="291.423603"/>
      </g>
     </g>
     <g id="text_12">
      <!-- 5 -->
      <g transform="translate(94.6375 295.222822)scale(0.1 -0.1)">
       <use xlink:href="#DejaVuSans-35"/>
      </g>
     </g>
    </g>
    <g id="ytick_3">
     <g id="line2d_12">
      <g>
       <use style="stroke:#000000;stroke-width:0.8;" x="108" xlink:href="#m514581fb06" y="275.047206"/>
      </g>
     </g>
     <g id="text_13">
      <!-- 10 -->
      <g transform="translate(88.275 278.846424)scale(0.1 -0.1)">
       <use xlink:href="#DejaVuSans-31"/>
       <use x="63.623047" xlink:href="#DejaVuSans-30"/>
      </g>
     </g>
    </g>
    <g id="ytick_4">
     <g id="line2d_13">
      <g>
       <use style="stroke:#000000;stroke-width:0.8;" x="108" xlink:href="#m514581fb06" y="258.670808"/>
      </g>
     </g>
     <g id="text_14">
      <!-- 15 -->
      <g transform="translate(88.275 262.470027)scale(0.1 -0.1)">
       <use xlink:href="#DejaVuSans-31"/>
       <use x="63.623047" xlink:href="#DejaVuSans-35"/>
      </g>
     </g>
    </g>
    <g id="ytick_5">
     <g id="line2d_14">
      <g>
       <use style="stroke:#000000;stroke-width:0.8;" x="108" xlink:href="#m514581fb06" y="242.294411"/>
      </g>
     </g>
     <g id="text_15">
      <!-- 20 -->
      <g transform="translate(88.275 246.09363)scale(0.1 -0.1)">
       <use xlink:href="#DejaVuSans-32"/>
       <use x="63.623047" xlink:href="#DejaVuSans-30"/>
      </g>
     </g>
    </g>
    <g id="ytick_6">
     <g id="line2d_15">
      <g>
       <use style="stroke:#000000;stroke-width:0.8;" x="108" xlink:href="#m514581fb06" y="225.918014"/>
      </g>
     </g>
     <g id="text_16">
      <!-- 25 -->
      <g transform="translate(88.275 229.717233)scale(0.1 -0.1)">
       <use xlink:href="#DejaVuSans-32"/>
       <use x="63.623047" xlink:href="#DejaVuSans-35"/>
      </g>
     </g>
    </g>
    <g id="ytick_7">
     <g id="line2d_16">
      <g>
       <use style="stroke:#000000;stroke-width:0.8;" x="108" xlink:href="#m514581fb06" y="209.541617"/>
      </g>
     </g>
     <g id="text_17">
      <!-- 30 -->
      <g transform="translate(88.275 213.340836)scale(0.1 -0.1)">
       <use xlink:href="#DejaVuSans-33"/>
       <use x="63.623047" xlink:href="#DejaVuSans-30"/>
      </g>
     </g>
    </g>
    <g id="ytick_8">
     <g id="line2d_17">
      <g>
       <use style="stroke:#000000;stroke-width:0.8;" x="108" xlink:href="#m514581fb06" y="193.16522"/>
      </g>
     </g>
     <g id="text_18">
      <!-- 35 -->
      <g transform="translate(88.275 196.964438)scale(0.1 -0.1)">
       <use xlink:href="#DejaVuSans-33"/>
       <use x="63.623047" xlink:href="#DejaVuSans-35"/>
      </g>
     </g>
    </g>
    <g id="ytick_9">
     <g id="line2d_18">
      <g>
       <use style="stroke:#000000;stroke-width:0.8;" x="108" xlink:href="#m514581fb06" y="176.788822"/>
      </g>
     </g>
     <g id="text_19">
      <!-- 40 -->
      <g transform="translate(88.275 180.588041)scale(0.1 -0.1)">
       <use xlink:href="#DejaVuSans-34"/>
       <use x="63.623047" xlink:href="#DejaVuSans-30"/>
      </g>
     </g>
    </g>
    <g id="ytick_10">
     <g id="line2d_19">
      <g>
       <use style="stroke:#000000;stroke-width:0.8;" x="108" xlink:href="#m514581fb06" y="160.412425"/>
      </g>
     </g>
     <g id="text_20">
      <!-- 45 -->
      <g transform="translate(88.275 164.211644)scale(0.1 -0.1)">
       <use xlink:href="#DejaVuSans-34"/>
       <use x="63.623047" xlink:href="#DejaVuSans-35"/>
      </g>
     </g>
    </g>
    <g id="ytick_11">
     <g id="line2d_20">
      <g>
       <use style="stroke:#000000;stroke-width:0.8;" x="108" xlink:href="#m514581fb06" y="144.036028"/>
      </g>
     </g>
     <g id="text_21">
      <!-- 50 -->
      <g transform="translate(88.275 147.835247)scale(0.1 -0.1)">
       <use xlink:href="#DejaVuSans-35"/>
       <use x="63.623047" xlink:href="#DejaVuSans-30"/>
      </g>
     </g>
    </g>
    <g id="ytick_12">
     <g id="line2d_21">
      <g>
       <use style="stroke:#000000;stroke-width:0.8;" x="108" xlink:href="#m514581fb06" y="127.659631"/>
      </g>
     </g>
     <g id="text_22">
      <!-- 55 -->
      <g transform="translate(88.275 131.45885)scale(0.1 -0.1)">
       <use xlink:href="#DejaVuSans-35"/>
       <use x="63.623047" xlink:href="#DejaVuSans-35"/>
      </g>
     </g>
    </g>
    <g id="ytick_13">
     <g id="line2d_22">
      <g>
       <use style="stroke:#000000;stroke-width:0.8;" x="108" xlink:href="#m514581fb06" y="111.283234"/>
      </g>
     </g>
     <g id="text_23">
      <!-- 60 -->
      <defs>
       <path d="M 33.015625 40.375 
Q 26.375 40.375 22.484375 35.828125 
Q 18.609375 31.296875 18.609375 23.390625 
Q 18.609375 15.53125 22.484375 10.953125 
Q 26.375 6.390625 33.015625 6.390625 
Q 39.65625 6.390625 43.53125 10.953125 
Q 47.40625 15.53125 47.40625 23.390625 
Q 47.40625 31.296875 43.53125 35.828125 
Q 39.65625 40.375 33.015625 40.375 
z
M 52.59375 71.296875 
L 52.59375 62.3125 
Q 48.875 64.0625 45.09375 64.984375 
Q 41.3125 65.921875 37.59375 65.921875 
Q 27.828125 65.921875 22.671875 59.328125 
Q 17.53125 52.734375 16.796875 39.40625 
Q 19.671875 43.65625 24.015625 45.921875 
Q 28.375 48.1875 33.59375 48.1875 
Q 44.578125 48.1875 50.953125 41.515625 
Q 57.328125 34.859375 57.328125 23.390625 
Q 57.328125 12.15625 50.6875 5.359375 
Q 44.046875 -1.421875 33.015625 -1.421875 
Q 20.359375 -1.421875 13.671875 8.265625 
Q 6.984375 17.96875 6.984375 36.375 
Q 6.984375 53.65625 15.1875 63.9375 
Q 23.390625 74.21875 37.203125 74.21875 
Q 40.921875 74.21875 44.703125 73.484375 
Q 48.484375 72.75 52.59375 71.296875 
z
" id="DejaVuSans-36"/>
      </defs>
      <g transform="translate(88.275 115.082452)scale(0.1 -0.1)">
       <use xlink:href="#DejaVuSans-36"/>
       <use x="63.623047" xlink:href="#DejaVuSans-30"/>
      </g>
     </g>
    </g>
    <g id="ytick_14">
     <g id="line2d_23">
      <g>
       <use style="stroke:#000000;stroke-width:0.8;" x="108" xlink:href="#m514581fb06" y="94.906836"/>
      </g>
     </g>
     <g id="text_24">
      <!-- 65 -->
      <g transform="translate(88.275 98.706055)scale(0.1 -0.1)">
       <use xlink:href="#DejaVuSans-36"/>
       <use x="63.623047" xlink:href="#DejaVuSans-35"/>
      </g>
     </g>
    </g>
    <g id="ytick_15">
     <g id="line2d_24">
      <g>
       <use style="stroke:#000000;stroke-width:0.8;" x="108" xlink:href="#m514581fb06" y="78.530439"/>
      </g>
     </g>
     <g id="text_25">
      <!-- 70 -->
      <defs>
       <path d="M 8.203125 72.90625 
L 55.078125 72.90625 
L 55.078125 68.703125 
L 28.609375 0 
L 18.3125 0 
L 43.21875 64.59375 
L 8.203125 64.59375 
z
" id="DejaVuSans-37"/>
      </defs>
      <g transform="translate(88.275 82.329658)scale(0.1 -0.1)">
       <use xlink:href="#DejaVuSans-37"/>
       <use x="63.623047" xlink:href="#DejaVuSans-30"/>
      </g>
     </g>
    </g>
    <g id="ytick_16">
     <g id="line2d_25">
      <g>
       <use style="stroke:#000000;stroke-width:0.8;" x="108" xlink:href="#m514581fb06" y="62.154042"/>
      </g>
     </g>
     <g id="text_26">
      <!-- 75 -->
      <g transform="translate(88.275 65.953261)scale(0.1 -0.1)">
       <use xlink:href="#DejaVuSans-37"/>
       <use x="63.623047" xlink:href="#DejaVuSans-35"/>
      </g>
     </g>
    </g>
    <g id="text_27">
     <!-- Cost per sequence (bits) -->
     <defs>
      <path d="M 64.40625 67.28125 
L 64.40625 56.890625 
Q 59.421875 61.53125 53.78125 63.8125 
Q 48.140625 66.109375 41.796875 66.109375 
Q 29.296875 66.109375 22.65625 58.46875 
Q 16.015625 50.828125 16.015625 36.375 
Q 16.015625 21.96875 22.65625 14.328125 
Q 29.296875 6.6875 41.796875 6.6875 
Q 48.140625 6.6875 53.78125 8.984375 
Q 59.421875 11.28125 64.40625 15.921875 
L 64.40625 5.609375 
Q 59.234375 2.09375 53.4375 0.328125 
Q 47.65625 -1.421875 41.21875 -1.421875 
Q 24.65625 -1.421875 15.125 8.703125 
Q 5.609375 18.84375 5.609375 36.375 
Q 5.609375 53.953125 15.125 64.078125 
Q 24.65625 74.21875 41.21875 74.21875 
Q 47.75 74.21875 53.53125 72.484375 
Q 59.328125 70.75 64.40625 67.28125 
z
" id="DejaVuSans-43"/>
      <path d="M 18.109375 8.203125 
L 18.109375 -20.796875 
L 9.078125 -20.796875 
L 9.078125 54.6875 
L 18.109375 54.6875 
L 18.109375 46.390625 
Q 20.953125 51.265625 25.265625 53.625 
Q 29.59375 56 35.59375 56 
Q 45.5625 56 51.78125 48.09375 
Q 58.015625 40.1875 58.015625 27.296875 
Q 58.015625 14.40625 51.78125 6.484375 
Q 45.5625 -1.421875 35.59375 -1.421875 
Q 29.59375 -1.421875 25.265625 0.953125 
Q 20.953125 3.328125 18.109375 8.203125 
z
M 48.6875 27.296875 
Q 48.6875 37.203125 44.609375 42.84375 
Q 40.53125 48.484375 33.40625 48.484375 
Q 26.265625 48.484375 22.1875 42.84375 
Q 18.109375 37.203125 18.109375 27.296875 
Q 18.109375 17.390625 22.1875 11.75 
Q 26.265625 6.109375 33.40625 6.109375 
Q 40.53125 6.109375 44.609375 11.75 
Q 48.6875 17.390625 48.6875 27.296875 
z
" id="DejaVuSans-70"/>
      <path d="M 14.796875 27.296875 
Q 14.796875 17.390625 18.875 11.75 
Q 22.953125 6.109375 30.078125 6.109375 
Q 37.203125 6.109375 41.296875 11.75 
Q 45.40625 17.390625 45.40625 27.296875 
Q 45.40625 37.203125 41.296875 42.84375 
Q 37.203125 48.484375 30.078125 48.484375 
Q 22.953125 48.484375 18.875 42.84375 
Q 14.796875 37.203125 14.796875 27.296875 
z
M 45.40625 8.203125 
Q 42.578125 3.328125 38.25 0.953125 
Q 33.9375 -1.421875 27.875 -1.421875 
Q 17.96875 -1.421875 11.734375 6.484375 
Q 5.515625 14.40625 5.515625 27.296875 
Q 5.515625 40.1875 11.734375 48.09375 
Q 17.96875 56 27.875 56 
Q 33.9375 56 38.25 53.625 
Q 42.578125 51.265625 45.40625 46.390625 
L 45.40625 54.6875 
L 54.390625 54.6875 
L 54.390625 -20.796875 
L 45.40625 -20.796875 
z
" id="DejaVuSans-71"/>
      <path d="M 48.78125 52.59375 
L 48.78125 44.1875 
Q 44.96875 46.296875 41.140625 47.34375 
Q 37.3125 48.390625 33.40625 48.390625 
Q 24.65625 48.390625 19.8125 42.84375 
Q 14.984375 37.3125 14.984375 27.296875 
Q 14.984375 17.28125 19.8125 11.734375 
Q 24.65625 6.203125 33.40625 6.203125 
Q 37.3125 6.203125 41.140625 7.25 
Q 44.96875 8.296875 48.78125 10.40625 
L 48.78125 2.09375 
Q 45.015625 0.34375 40.984375 -0.53125 
Q 36.96875 -1.421875 32.421875 -1.421875 
Q 20.0625 -1.421875 12.78125 6.34375 
Q 5.515625 14.109375 5.515625 27.296875 
Q 5.515625 40.671875 12.859375 48.328125 
Q 20.21875 56 33.015625 56 
Q 37.15625 56 41.109375 55.140625 
Q 45.0625 54.296875 48.78125 52.59375 
z
" id="DejaVuSans-63"/>
      <path d="M 48.6875 27.296875 
Q 48.6875 37.203125 44.609375 42.84375 
Q 40.53125 48.484375 33.40625 48.484375 
Q 26.265625 48.484375 22.1875 42.84375 
Q 18.109375 37.203125 18.109375 27.296875 
Q 18.109375 17.390625 22.1875 11.75 
Q 26.265625 6.109375 33.40625 6.109375 
Q 40.53125 6.109375 44.609375 11.75 
Q 48.6875 17.390625 48.6875 27.296875 
z
M 18.109375 46.390625 
Q 20.953125 51.265625 25.265625 53.625 
Q 29.59375 56 35.59375 56 
Q 45.5625 56 51.78125 48.09375 
Q 58.015625 40.1875 58.015625 27.296875 
Q 58.015625 14.40625 51.78125 6.484375 
Q 45.5625 -1.421875 35.59375 -1.421875 
Q 29.59375 -1.421875 25.265625 0.953125 
Q 20.953125 3.328125 18.109375 8.203125 
L 18.109375 0 
L 9.078125 0 
L 9.078125 75.984375 
L 18.109375 75.984375 
z
" id="DejaVuSans-62"/>
     </defs>
     <g transform="translate(82.195312 243.114062)rotate(-90)scale(0.1 -0.1)">
      <use xlink:href="#DejaVuSans-43"/>
      <use x="69.824219" xlink:href="#DejaVuSans-6f"/>
      <use x="131.005859" xlink:href="#DejaVuSans-73"/>
      <use x="183.105469" xlink:href="#DejaVuSans-74"/>
      <use x="222.314453" xlink:href="#DejaVuSans-20"/>
      <use x="254.101562" xlink:href="#DejaVuSans-70"/>
      <use x="317.578125" xlink:href="#DejaVuSans-65"/>
      <use x="379.101562" xlink:href="#DejaVuSans-72"/>
      <use x="420.214844" xlink:href="#DejaVuSans-20"/>
      <use x="452.001953" xlink:href="#DejaVuSans-73"/>
      <use x="504.101562" xlink:href="#DejaVuSans-65"/>
      <use x="565.625" xlink:href="#DejaVuSans-71"/>
      <use x="629.101562" xlink:href="#DejaVuSans-75"/>
      <use x="692.480469" xlink:href="#DejaVuSans-65"/>
      <use x="754.003906" xlink:href="#DejaVuSans-6e"/>
      <use x="817.382812" xlink:href="#DejaVuSans-63"/>
      <use x="872.363281" xlink:href="#DejaVuSans-65"/>
      <use x="933.886719" xlink:href="#DejaVuSans-20"/>
      <use x="965.673828" xlink:href="#DejaVuSans-28"/>
      <use x="1004.6875" xlink:href="#DejaVuSans-62"/>
      <use x="1068.164062" xlink:href="#DejaVuSans-69"/>
      <use x="1095.947266" xlink:href="#DejaVuSans-74"/>
      <use x="1135.15625" xlink:href="#DejaVuSans-73"/>
      <use x="1187.255859" xlink:href="#DejaVuSans-29"/>
     </g>
    </g>
   </g>
   <g id="line2d_26">
    <path clip-path="url(#pb422cf2889)" d="M 140.38766 300.659891 
L 159.892842 306.817416 
L 176.130404 307.8 
L 188.892424 307.8 
L 201.896916 307.8 
L 218.037676 307.8 
L 235.523396 307.8 
L 251.564241 307.734494 
L 265.489444 307.734494 
L 278.481486 307.8 
L 291.101882 307.8 
L 306.456396 307.8 
L 320.172431 307.8 
L 335.100829 307.8 
L 352.148915 307.8 
L 372.743823 307.8 
L 387.20315 307.8 
L 400.616017 307.8 
L 416.136122 307.8 
L 432.914967 307.8 
L 451.759653 307.8 
L 467.699338 307.8 
L 480.985211 307.8 
L 495.335908 307.8 
L 509.049453 307.8 
L 523.346302 307.8 
L 538.904069 307.8 
L 554.447519 307.8 
L 570.311257 307.8 
L 585.601962 307.8 
L 604.211957 307.8 
L 621.210242 307.8 
L 636.222369 307.8 
L 650.449806 307.8 
L 667.622086 307.8 
L 681.6637 307.8 
L 700.673355 307.8 
L 716.474217 307.8 
L 733.987639 307.8 
" style="fill:none;stroke:#1f77b4;stroke-linecap:square;stroke-width:1.5;"/>
   </g>
   <g id="line2d_27">
    <path clip-path="url(#pb422cf2889)" d="M 140.602741 290.441019 
L 154.085642 295.157421 
L 168.161184 296.271016 
L 183.104522 296.271016 
L 200.617322 297.581128 
L 215.717535 298.89124 
L 231.012599 305.900338 
L 248.472172 301.11843 
L 264.09157 306.751911 
L 277.312077 307.8 
L 293.246471 307.8 
L 307.664089 307.8 
L 323.609377 307.8 
L 339.362306 307.8 
L 352.859213 307.8 
L 368.849323 307.8 
L 385.48063 307.8 
L 403.812358 307.8 
L 420.522415 305.965844 
L 437.600693 307.8 
L 451.509088 307.8 
L 466.391419 307.8 
L 483.567745 307.8 
L 499.430237 307.8 
L 513.309374 307.8 
L 530.390454 307.8 
L 546.958886 307.8 
L 565.858043 307.8 
L 580.993741 307.8 
L 593.551262 307.8 
L 608.853795 307.8 
L 621.827162 307.8 
L 637.359717 307.8 
L 652.694622 307.8 
L 667.174181 307.8 
L 682.50037 307.8 
L 694.849658 307.8 
L 709.491384 307.8 
L 722.69913 307.8 
L 736.332058 307.8 
" style="fill:none;stroke:#ff7f0e;stroke-linecap:square;stroke-width:1.5;"/>
   </g>
   <g id="line2d_28">
    <path clip-path="url(#pb422cf2889)" d="M 142.175233 279.43608 
L 156.406094 285.462594 
L 170.590889 286.445178 
L 186.461786 287.820795 
L 201.284354 287.820795 
L 217.527831 294.109332 
L 233.724306 304.98326 
L 249.532639 295.353938 
L 265.740943 307.079439 
L 281.462434 307.8 
L 297.403676 307.8 
L 311.589404 307.8 
L 326.993098 307.8 
L 342.307459 307.8 
L 356.648818 307.8 
L 371.780158 307.8 
L 384.182671 307.8 
L 400.121423 307.8 
L 414.925316 307.8 
L 429.81076 301.183936 
L 446.749904 307.8 
L 464.519805 307.8 
L 480.703208 307.8 
L 495.973682 307.8 
L 510.557513 307.8 
L 525.681383 307.8 
L 541.978085 307.8 
L 558.814514 307.8 
L 575.815911 307.8 
L 592.459669 307.8 
L 607.730143 307.8 
L 623.577383 307.8 
L 638.363534 307.8 
L 654.555341 307.8 
L 673.37108 307.8 
L 693.911828 307.8 
L 710.321518 307.8 
L 727.470453 307.8 
L 743.875473 307.8 
" style="fill:none;stroke:#2ca02c;stroke-linecap:square;stroke-width:1.5;"/>
   </g>
   <g id="line2d_29">
    <path clip-path="url(#pb422cf2889)" d="M 140.689895 266.859007 
L 155.251627 273.671588 
L 171.905656 276.226306 
L 189.89842 277.536418 
L 203.590177 278.912035 
L 218.431422 286.7072 
L 233.734578 302.232025 
L 250.203718 293.257759 
L 269.995261 307.734494 
L 286.902035 307.8 
L 300.737905 307.8 
L 316.382515 307.8 
L 332.82302 307.8 
L 348.494709 307.8 
L 366.712515 307.8 
L 384.06626 307.8 
L 396.834816 307.8 
L 411.21197 307.8 
L 427.884364 302.559553 
L 442.807782 307.079439 
L 455.802625 307.8 
L 469.498117 307.8 
L 484.762054 307.8 
L 499.905533 307.8 
L 515.000144 307.8 
L 530.851743 307.8 
L 548.283925 307.8 
L 566.728018 307.8 
L 585.494577 307.8 
L 602.488193 307.8 
L 615.988213 307.8 
L 630.375327 307.8 
L 644.37212 307.8 
L 660.077737 307.8 
L 673.026202 307.8 
L 687.960203 307.8 
L 702.026718 307.8 
L 714.559339 307.8 
L 729.971436 307.8 
L 745.071027 307.8 
" style="fill:none;stroke:#d62728;stroke-linecap:square;stroke-width:1.5;"/>
   </g>
   <g id="line2d_30">
    <path clip-path="url(#pb422cf2889)" d="M 140.260043 257.295191 
L 158.564691 259.98092 
L 171.094821 262.797661 
L 185.19433 264.4353 
L 201.993096 267.71058 
L 219.267158 278.584507 
L 234.878151 301.70798 
L 250.262236 280.353158 
L 265.039983 307.668989 
L 284.281838 307.8 
L 301.209466 306.948427 
L 320.16714 307.8 
L 335.424541 307.8 
L 351.043004 307.8 
L 364.022907 307.8 
L 378.078528 307.8 
L 392.118275 306.686405 
L 408.940075 307.8 
L 422.672918 296.402028 
L 438.553152 307.8 
L 454.628859 307.8 
L 466.999001 307.8 
L 480.998906 307.8 
L 496.990261 307.8 
L 513.527256 307.8 
L 529.844501 307.8 
L 545.451448 307.8 
L 562.269513 307.8 
L 577.755379 307.8 
L 595.156436 307.8 
L 611.972632 307.8 
L 627.963987 307.8 
L 641.911601 307.8 
L 656.738216 307.8 
L 673.137634 307.8 
L 689.674941 307.8 
L 706.813604 307.8 
L 723.276208 307.8 
L 741.403748 307.8 
" style="fill:none;stroke:#9467bd;stroke-linecap:square;stroke-width:1.5;"/>
   </g>
   <g id="line2d_31">
    <path clip-path="url(#pb422cf2889)" d="M 140.364004 243.408006 
L 158.493101 249.369015 
L 174.056782 254.216428 
L 191.188909 252.971822 
L 209.853997 259.129348 
L 228.379018 290.178997 
L 241.598903 298.236184 
L 257.654066 276.488329 
L 273.861436 307.8 
L 287.831772 307.8 
L 302.864131 307.8 
L 319.408596 307.8 
L 336.689195 307.8 
L 351.33559 307.8 
L 366.173722 307.8 
L 379.106624 307.8 
L 392.875262 307.8 
L 408.098424 307.8 
L 422.631209 300.52888 
L 441.747315 307.8 
L 458.613624 307.8 
L 472.814605 307.8 
L 485.829991 307.8 
L 501.493588 307.8 
L 516.745074 307.8 
L 533.219195 307.8 
L 547.386871 307.8 
L 562.457203 307.8 
L 578.912337 307.8 
L 594.444581 307.8 
L 609.112453 306.489888 
L 626.036347 307.8 
L 642.070966 307.8 
L 656.384001 307.8 
L 671.110701 307.8 
L 686.449652 307.8 
L 702.887044 307.8 
L 722.59299 307.8 
L 737.791873 307.8 
" style="fill:none;stroke:#8c564b;stroke-linecap:square;stroke-width:1.5;"/>
   </g>
   <g id="line2d_32">
    <path clip-path="url(#pb422cf2889)" d="M 138.681949 226.049025 
L 154.178398 238.233065 
L 166.867894 242.556434 
L 179.871452 241.311827 
L 195.693481 243.670029 
L 211.369217 249.106992 
L 230.086908 291.16158 
L 245.33217 276.357317 
L 259.785583 276.160801 
L 277.0833 307.8 
L 294.992958 307.8 
L 312.290676 307.8 
L 327.207557 307.8 
L 341.146455 307.8 
L 356.322928 307.8 
L 372.827552 307.8 
L 390.031269 307.8 
L 409.087612 307.8 
L 425.91875 284.021471 
L 439.520241 307.8 
L 454.332538 307.8 
L 468.368861 307.8 
L 483.884297 307.8 
L 500.869198 307.8 
L 515.799152 307.8 
L 529.221357 307.8 
L 545.871962 307.8 
L 560.937004 307.8 
L 575.997065 307.8 
L 592.681287 307.8 
L 608.713105 307.8 
L 626.48145 307.8 
L 644.397333 307.8 
L 657.25989 307.8 
L 671.041912 307.8 
L 685.242893 307.8 
L 701.350348 307.8 
L 715.378578 307.8 
L 730.090649 307.8 
L 745.369838 307.8 
" style="fill:none;stroke:#e377c2;stroke-linecap:square;stroke-width:1.5;"/>
   </g>
   <g id="line2d_33">
    <path clip-path="url(#pb422cf2889)" d="M 138.436364 215.240603 
L 150.982057 221.856668 
L 164.167392 226.900598 
L 180.116726 227.686665 
L 193.610832 229.193293 
L 208.21085 234.302729 
L 222.194258 265.48339 
L 241.672672 288.541357 
L 261.25349 283.89046 
L 278.275431 306.293371 
L 293.247094 307.734494 
L 307.762448 307.734494 
L 324.425815 307.8 
L 340.127075 307.8 
L 354.056324 307.8 
L 369.549972 307.8 
L 386.627005 305.834832 
L 401.806902 307.8 
L 415.382247 307.8 
L 429.898224 278.650013 
L 446.278966 307.8 
L 463.389927 307.8 
L 481.871994 307.8 
L 500.550466 307.8 
L 515.387353 307.8 
L 529.338079 307.8 
L 544.549414 307.8 
L 563.613539 307.8 
L 579.313864 307.8 
L 593.406214 307.8 
L 607.23088 307.8 
L 622.292808 307.8 
L 638.917268 307.8 
L 656.757825 307.8 
L 673.30696 307.8 
L 688.252477 307.8 
L 702.915991 307.8 
L 717.47928 307.8 
L 732.861496 307.8 
L 746.044652 307.8 
" style="fill:none;stroke:#7f7f7f;stroke-linecap:square;stroke-width:1.5;"/>
   </g>
   <g id="line2d_34">
    <path clip-path="url(#pb422cf2889)" d="M 141.15274 205.676787 
L 155.566934 214.258019 
L 170.544511 215.895659 
L 187.644578 221.398128 
L 207.303212 223.29779 
L 224.192555 268.103613 
L 241.733368 302.887081 
L 257.231996 256.836652 
L 272.900573 307.8 
L 288.757774 307.8 
L 304.358184 305.507304 
L 315.02386 307.8 
L 329.536413 307.8 
L 346.84627 307.8 
L 363.309185 307.8 
L 384.084001 307.8 
L 399.308097 307.8 
L 415.206073 307.8 
L 433.695299 286.772706 
L 449.940332 307.8 
L 464.141001 307.8 
L 478.825369 307.8 
L 492.35029 307.8 
L 510.866285 307.8 
L 526.625127 307.8 
L 541.714758 307.8 
L 554.007707 307.8 
L 568.740322 307.8 
L 581.820762 307.8 
L 595.336033 307.8 
L 606.670609 307.8 
L 621.446489 307.8 
L 637.32579 307.8 
L 653.623114 307.8 
L 669.804338 307.8 
L 684.727133 307.8 
L 699.878394 307.8 
L 715.492188 307.8 
L 730.613257 307.8 
L 744.497062 307.8 
" style="fill:none;stroke:#bcbd22;stroke-linecap:square;stroke-width:1.5;"/>
   </g>
   <g id="line2d_35">
    <path clip-path="url(#pb422cf2889)" d="M 140.063637 188.71084 
L 157.793385 200.829374 
L 174.018186 203.646114 
L 190.187893 206.986899 
L 204.182196 213.537458 
L 216.573192 223.952846 
L 228.088611 285.593605 
L 241.266476 290.703041 
L 254.243266 227.490148 
L 267.744531 307.668989 
L 283.413419 307.8 
L 302.137024 307.8 
L 320.539719 307.8 
L 331.804884 307.8 
L 346.54528 307.8 
L 363.823388 307.8 
L 381.719662 307.8 
L 400.541625 307.8 
L 418.813279 299.742813 
L 435.892492 286.314167 
L 452.868054 307.8 
L 471.003998 307.8 
L 485.325437 307.8 
L 502.616618 307.8 
L 522.286457 307.8 
L 537.601753 307.8 
L 553.552021 307.8 
L 570.983581 307.8 
L 586.922021 307.8 
L 600.647706 307.8 
L 616.522648 307.8 
L 635.195829 307.8 
L 648.763393 307.8 
L 664.136272 307.8 
L 681.186537 307.8 
L 695.842892 307.8 
L 709.003326 307.8 
L 725.125722 307.8 
L 738.970308 307.8 
" style="fill:none;stroke:#17becf;stroke-linecap:square;stroke-width:1.5;"/>
   </g>
   <g id="line2d_36">
    <path clip-path="url(#pb422cf2889)" d="M 139.72623 179.212529 
L 154.653071 186.221627 
L 174.054603 191.724097 
L 188.014045 196.374994 
L 202.387464 196.768027 
L 219.302953 229.782844 
L 237.918862 295.02641 
L 254.365592 256.836652 
L 270.10358 307.8 
L 285.887946 307.8 
L 300.57605 307.8 
L 315.628952 305.900338 
L 330.238929 307.8 
L 344.240391 307.8 
L 361.531884 307.8 
L 376.243955 307.8 
L 392.029566 307.8 
L 406.42166 307.8 
L 420.365228 305.048765 
L 433.498893 274.064622 
L 449.075648 307.8 
L 464.683218 307.8 
L 479.021464 307.8 
L 494.132572 307.8 
L 508.032251 307.8 
L 524.027652 307.8 
L 539.426988 307.8 
L 555.648987 307.8 
L 570.105513 307.8 
L 583.65658 307.8 
L 597.419927 307.8 
L 613.956611 307.8 
L 632.744025 307.8 
L 649.006488 307.8 
L 665.96462 307.8 
L 681.459824 307.8 
L 695.501128 307.8 
L 713.698079 307.8 
L 729.439491 307.8 
L 745.34556 307.8 
" style="fill:none;stroke:#1f77b4;stroke-linecap:square;stroke-width:1.5;"/>
   </g>
   <g id="line2d_37">
    <path clip-path="url(#pb422cf2889)" d="M 140.082313 164.146244 
L 155.320104 169.910736 
L 170.796633 180.522641 
L 185.64846 182.815337 
L 202.37408 186.48365 
L 217.580745 213.537458 
L 232.910047 281.859787 
L 247.689662 250.810138 
L 264.071338 297.777645 
L 277.144308 307.8 
L 293.161186 307.8 
L 310.804092 307.8 
L 327.019866 304.917754 
L 343.676697 305.310788 
L 356.946384 307.8 
L 370.003168 307.8 
L 384.267957 307.734494 
L 395.689997 307.8 
L 410.06684 307.8 
L 423.562503 257.884741 
L 436.180097 307.8 
L 451.915284 307.8 
L 468.975509 307.8 
L 486.28879 307.8 
L 499.689518 307.8 
L 513.677907 307.8 
L 528.897334 307.8 
L 546.30088 307.8 
L 558.814202 307.8 
L 572.052141 307.8 
L 590.114627 307.8 
L 605.973073 307.8 
L 620.408122 307.8 
L 634.713997 307.8 
L 650.490581 307.8 
L 664.880186 307.8 
L 680.615061 307.8 
L 694.897903 307.8 
L 706.503588 307.8 
L 720.366538 307.8 
L 733.94593 307.8 
" style="fill:none;stroke:#ff7f0e;stroke-linecap:square;stroke-width:1.5;"/>
   </g>
   <g id="line2d_38">
    <path clip-path="url(#pb422cf2889)" d="M 142.156246 150.97962 
L 157.586708 163.491188 
L 170.794143 164.015233 
L 186.869538 171.875903 
L 202.632738 172.465454 
L 217.275709 198.471172 
L 230.972757 283.693943 
L 242.502494 269.806759 
L 256.19892 232.403067 
L 271.437645 307.8 
L 285.87425 307.8 
L 299.678061 307.8 
L 313.421799 307.8 
L 328.663636 307.8 
L 345.448396 307.8 
L 361.651097 307.8 
L 377.856599 307.8 
L 392.248694 307.8 
L 403.469971 307.8 
L 417.131535 307.8 
L 436.043142 274.654172 
L 453.291681 307.8 
L 467.311818 307.8 
L 482.802976 307.8 
L 499.087539 307.8 
L 514.276151 307.8 
L 527.867059 307.8 
L 541.721606 307.8 
L 557.10818 307.8 
L 574.178054 307.8 
L 591.71451 307.8 
L 607.139058 307.8 
L 622.773084 307.8 
L 637.06184 307.8 
L 651.916158 307.8 
L 667.33199 307.8 
L 682.151758 307.8 
L 700.351511 307.8 
L 717.390259 307.8 
L 729.560883 307.8 
" style="fill:none;stroke:#2ca02c;stroke-linecap:square;stroke-width:1.5;"/>
   </g>
   <g id="line2d_39">
    <path clip-path="url(#pb422cf2889)" d="M 140.282454 135.585807 
L 154.165948 152.158721 
L 170.181892 153.403327 
L 181.400679 154.778945 
L 197.121547 161.460515 
L 211.991117 168.338602 
L 226.370138 261.684066 
L 240.316507 288.803379 
L 255.066241 215.240603 
L 271.467837 307.8 
L 287.325661 307.8 
L 303.998989 307.8 
L 317.902715 307.8 
L 334.581023 307.8 
L 350.116691 307.8 
L 365.075281 307.8 
L 378.864774 307.8 
L 394.655988 307.8 
L 411.410866 307.8 
L 425.095775 259.260359 
L 438.573696 307.8 
L 451.020719 307.8 
L 467.679729 307.8 
L 483.708435 307.8 
L 499.511477 304.655732 
L 514.527339 307.8 
L 529.76513 307.8 
L 544.537274 307.8 
L 560.334713 307.8 
L 573.453438 307.8 
L 588.477393 307.8 
L 604.388442 307.8 
L 621.647253 307.8 
L 635.271466 307.8 
L 649.743866 307.8 
L 664.79241 307.8 
L 679.21781 307.8 
L 694.083022 307.8 
L 712.405411 307.8 
L 733.276719 307.8 
" style="fill:none;stroke:#d62728;stroke-linecap:square;stroke-width:1.5;"/>
   </g>
   <g id="line2d_40">
    <path clip-path="url(#pb422cf2889)" d="M 139.927616 121.567611 
L 154.526699 134.537718 
L 168.575162 139.385131 
L 181.570939 146.328724 
L 194.622743 145.93569 
L 211.056711 152.224227 
L 226.470987 255.002495 
L 243.131242 266.007434 
L 258.197839 224.083858 
L 275.414941 307.8 
L 291.281168 307.8 
L 307.586274 307.8 
L 324.105216 307.8 
L 338.609988 307.8 
L 353.623982 307.8 
L 370.266806 307.8 
L 386.631052 307.8 
L 402.984403 307.8 
L 421.304925 280.418664 
L 436.030069 295.943488 
L 450.07573 307.8 
L 464.96024 307.8 
L 481.493189 307.8 
L 495.532314 307.8 
L 511.471065 307.8 
L 533.139512 307.8 
L 545.986506 307.8 
L 559.290432 307.8 
L 575.732804 307.8 
L 591.873564 307.8 
L 609.658094 307.8 
L 622.750051 307.8 
L 635.875001 307.8 
L 655.094446 307.8 
L 671.041912 307.8 
L 687.988839 307.8 
L 702.730791 307.8 
L 716.627669 307.8 
L 731.931759 307.8 
L 747.163636 307.8 
" style="fill:none;stroke:#9467bd;stroke-linecap:square;stroke-width:1.5;"/>
   </g>
   <g id="line2d_41">
    <path clip-path="url(#pb422cf2889)" d="M 139.466016 108.07346 
L 155.875705 124.187835 
L 171.144623 125.497946 
L 187.947124 134.079179 
L 204.851408 140.629737 
L 222.756085 210.458695 
L 236.958932 279.567091 
L 254.782682 191.396569 
L 266.585706 307.8 
L 280.712606 307.8 
L 294.952183 307.8 
L 309.230978 307.8 
L 325.086623 307.8 
L 341.515299 307.8 
L 357.824452 307.8 
L 374.696364 307.8 
L 389.524224 307.8 
L 404.688558 307.8 
L 419.894912 294.960905 
L 440.637357 307.8 
L 455.900983 307.8 
L 473.215509 307.8 
L 490.680997 307.8 
L 507.524584 307.8 
L 522.418743 307.8 
L 537.1691 307.8 
L 553.136798 307.8 
L 568.934237 307.8 
L 584.655106 307.8 
L 599.737889 307.8 
L 612.220085 307.8 
L 624.36892 307.8 
L 639.969642 307.8 
L 654.978345 307.8 
L 668.952105 307.8 
L 684.866267 307.8 
L 700.613904 307.8 
L 714.388456 307.8 
L 732.05284 307.8 
L 746.535511 307.8 
" style="fill:none;stroke:#8c564b;stroke-linecap:square;stroke-width:1.5;"/>
   </g>
   <g id="line2d_42">
    <path clip-path="url(#pb422cf2889)" d="M 140.536132 97.723577 
L 153.896084 107.745932 
L 170.809394 115.148063 
L 187.515405 119.405927 
L 204.404125 124.056823 
L 218.270188 164.211749 
L 234.205516 287.558773 
L 250.587192 195.064882 
L 266.647336 306.882922 
L 283.320041 303.869665 
L 299.82093 307.603483 
L 316.202917 304.328204 
L 330.226479 307.8 
L 347.462256 307.8 
L 362.395633 307.8 
L 374.761418 307.8 
L 389.799379 307.8 
L 406.736657 307.8 
L 422.274815 272.16496 
L 437.601627 307.8 
L 451.627367 307.8 
L 469.674291 307.8 
L 486.264512 307.8 
L 500.583771 307.8 
L 516.526569 307.8 
L 532.454738 307.8 
L 548.560948 307.8 
L 562.527237 307.8 
L 576.171371 307.8 
L 589.756988 307.8 
L 607.138746 307.8 
L 624.060461 307.8 
L 639.532943 307.8 
L 654.655567 307.8 
L 669.56062 307.8 
L 683.458744 307.8 
L 700.345597 307.8 
L 717.959244 307.8 
L 730.810908 307.8 
L 746.766778 307.8 
" style="fill:none;stroke:#e377c2;stroke-linecap:square;stroke-width:1.5;"/>
   </g>
   <g id="line2d_43">
    <path clip-path="url(#pb422cf2889)" d="M 140.875406 82.264258 
L 156.513168 95.561892 
L 172.268898 100.016272 
L 188.577428 107.811437 
L 203.755768 107.614921 
L 219.801282 167.945568 
L 235.584403 274.9817 
L 249.815887 205.807798 
L 263.406173 288.410346 
L 277.770565 307.8 
L 293.097066 307.8 
L 309.058851 298.89124 
L 324.173071 304.000676 
L 341.165753 307.8 
L 357.883903 307.8 
L 372.834711 307.8 
L 389.966215 307.8 
L 407.398398 304.262698 
L 422.853138 256.836652 
L 436.961051 307.8 
L 451.336027 307.8 
L 466.995888 307.8 
L 482.193838 307.8 
L 498.12294 307.8 
L 515.01135 307.8 
L 530.484143 307.8 
L 548.839838 307.8 
L 563.482498 307.8 
L 576.197828 307.8 
L 591.456474 307.8 
L 607.768428 307.8 
L 622.889496 307.8 
L 637.70584 307.8 
L 655.147049 307.8 
L 672.04075 307.8 
L 687.253329 307.8 
L 703.210133 307.8 
L 719.16258 307.8 
L 737.309107 307.8 
" style="fill:none;stroke:#7f7f7f;stroke-linecap:square;stroke-width:1.5;"/>
   </g>
   <g id="line2d_44">
    <path clip-path="url(#pb422cf2889)" d="M 143.180918 72.831453 
L 158.052355 82.067741 
L 179.104505 92.221107 
L 195.646169 95.561892 
L 208.951029 96.675487 
L 224.351609 218.188355 
L 239.604964 285.593605 
L 252.866558 187.597245 
L 269.205591 307.734494 
L 284.264407 307.8 
L 296.561403 307.8 
L 312.730176 307.8 
L 328.414005 307.8 
L 343.483404 307.8 
L 356.849893 307.8 
L 370.299489 307.8 
L 389.996408 307.8 
L 406.55239 307.8 
L 421.226487 297.2536 
L 435.445521 268.562152 
L 453.012791 307.8 
L 473.823091 307.8 
L 488.06329 307.8 
L 502.905157 307.8 
L 517.60789 307.8 
L 532.3542 307.8 
L 547.950253 307.8 
L 562.09863 307.8 
L 580.535253 307.8 
L 597.965568 307.8 
L 615.419539 307.8 
L 632.5996 307.8 
L 647.611727 307.8 
L 663.494762 307.8 
L 677.707259 307.8 
L 693.617686 307.8 
L 708.903723 307.8 
L 721.849698 307.8 
L 739.023223 307.8 
" style="fill:none;stroke:#bcbd22;stroke-linecap:square;stroke-width:1.5;"/>
   </g>
   <g id="line2d_45">
    <path clip-path="url(#pb422cf2889)" d="M 142.40899 55.8 
L 162.56035 73.158981 
L 184.446369 77.089316 
L 198.370638 83.705381 
L 213.44564 98.313127 
L 228.232414 249.565532 
L 243.469583 235.547336 
L 263.595108 258.408786 
L 280.934224 307.8 
L 297.340801 307.8 
L 315.527792 307.8 
L 333.713227 307.8 
L 350.578914 307.8 
L 367.345931 307.8 
L 381.207948 307.8 
L 396.994493 307.8 
L 415.774748 307.8 
L 429.894178 251.334182 
L 444.526255 307.8 
L 456.429193 307.8 
L 470.369648 307.8 
L 485.418504 307.8 
L 503.052384 307.8 
L 518.622291 307.8 
L 533.435833 307.8 
L 548.414966 307.8 
L 563.99888 307.8 
L 579.750563 307.8 
L 595.193787 307.8 
L 611.944308 307.8 
L 630.80051 307.8 
L 647.814669 307.8 
L 665.96213 307.8 
L 684.079087 307.8 
L 698.657316 307.8 
L 716.650702 307.8 
L 733.133227 307.8 
" style="fill:none;stroke:#17becf;stroke-linecap:square;stroke-width:1.5;"/>
   </g>
   <g id="patch_3">
    <path d="M 108 320.4 
L 108 43.2 
" style="fill:none;stroke:#000000;stroke-linecap:square;stroke-linejoin:miter;stroke-width:0.8;"/>
   </g>
   <g id="patch_4">
    <path d="M 777.6 320.4 
L 777.6 43.2 
" style="fill:none;stroke:#000000;stroke-linecap:square;stroke-linejoin:miter;stroke-width:0.8;"/>
   </g>
   <g id="patch_5">
    <path d="M 108 320.4 
L 777.6 320.4 
" style="fill:none;stroke:#000000;stroke-linecap:square;stroke-linejoin:miter;stroke-width:0.8;"/>
   </g>
   <g id="patch_6">
    <path d="M 108 43.2 
L 777.6 43.2 
" style="fill:none;stroke:#000000;stroke-linecap:square;stroke-linejoin:miter;stroke-width:0.8;"/>
   </g>
   <g id="text_28">
    <!-- Training Convergence (Per Sequence Length) for lstm-ntm -->
    <defs>
     <path d="M -0.296875 72.90625 
L 61.375 72.90625 
L 61.375 64.59375 
L 35.5 64.59375 
L 35.5 0 
L 25.59375 0 
L 25.59375 64.59375 
L -0.296875 64.59375 
z
" id="DejaVuSans-54"/>
     <path d="M 45.40625 27.984375 
Q 45.40625 37.75 41.375 43.109375 
Q 37.359375 48.484375 30.078125 48.484375 
Q 22.859375 48.484375 18.828125 43.109375 
Q 14.796875 37.75 14.796875 27.984375 
Q 14.796875 18.265625 18.828125 12.890625 
Q 22.859375 7.515625 30.078125 7.515625 
Q 37.359375 7.515625 41.375 12.890625 
Q 45.40625 18.265625 45.40625 27.984375 
z
M 54.390625 6.78125 
Q 54.390625 -7.171875 48.1875 -13.984375 
Q 42 -20.796875 29.203125 -20.796875 
Q 24.46875 -20.796875 20.265625 -20.09375 
Q 16.0625 -19.390625 12.109375 -17.921875 
L 12.109375 -9.1875 
Q 16.0625 -11.328125 19.921875 -12.34375 
Q 23.78125 -13.375 27.78125 -13.375 
Q 36.625 -13.375 41.015625 -8.765625 
Q 45.40625 -4.15625 45.40625 5.171875 
L 45.40625 9.625 
Q 42.625 4.78125 38.28125 2.390625 
Q 33.9375 0 27.875 0 
Q 17.828125 0 11.671875 7.65625 
Q 5.515625 15.328125 5.515625 27.984375 
Q 5.515625 40.671875 11.671875 48.328125 
Q 17.828125 56 27.875 56 
Q 33.9375 56 38.28125 53.609375 
Q 42.625 51.21875 45.40625 46.390625 
L 45.40625 54.6875 
L 54.390625 54.6875 
z
" id="DejaVuSans-67"/>
     <path d="M 2.984375 54.6875 
L 12.5 54.6875 
L 29.59375 8.796875 
L 46.6875 54.6875 
L 56.203125 54.6875 
L 35.6875 0 
L 23.484375 0 
z
" id="DejaVuSans-76"/>
     <path d="M 19.671875 64.796875 
L 19.671875 37.40625 
L 32.078125 37.40625 
Q 38.96875 37.40625 42.71875 40.96875 
Q 46.484375 44.53125 46.484375 51.125 
Q 46.484375 57.671875 42.71875 61.234375 
Q 38.96875 64.796875 32.078125 64.796875 
z
M 9.8125 72.90625 
L 32.078125 72.90625 
Q 44.34375 72.90625 50.609375 67.359375 
Q 56.890625 61.8125 56.890625 51.125 
Q 56.890625 40.328125 50.609375 34.8125 
Q 44.34375 29.296875 32.078125 29.296875 
L 19.671875 29.296875 
L 19.671875 0 
L 9.8125 0 
z
" id="DejaVuSans-50"/>
     <path d="M 53.515625 70.515625 
L 53.515625 60.890625 
Q 47.90625 63.578125 42.921875 64.890625 
Q 37.9375 66.21875 33.296875 66.21875 
Q 25.25 66.21875 20.875 63.09375 
Q 16.5 59.96875 16.5 54.203125 
Q 16.5 49.359375 19.40625 46.890625 
Q 22.3125 44.4375 30.421875 42.921875 
L 36.375 41.703125 
Q 47.40625 39.59375 52.65625 34.296875 
Q 57.90625 29 57.90625 20.125 
Q 57.90625 9.515625 50.796875 4.046875 
Q 43.703125 -1.421875 29.984375 -1.421875 
Q 24.8125 -1.421875 18.96875 -0.25 
Q 13.140625 0.921875 6.890625 3.21875 
L 6.890625 13.375 
Q 12.890625 10.015625 18.65625 8.296875 
Q 24.421875 6.59375 29.984375 6.59375 
Q 38.421875 6.59375 43.015625 9.90625 
Q 47.609375 13.234375 47.609375 19.390625 
Q 47.609375 24.75 44.3125 27.78125 
Q 41.015625 30.8125 33.5 32.328125 
L 27.484375 33.5 
Q 16.453125 35.6875 11.515625 40.375 
Q 6.59375 45.0625 6.59375 53.421875 
Q 6.59375 63.09375 13.40625 68.65625 
Q 20.21875 74.21875 32.171875 74.21875 
Q 37.3125 74.21875 42.625 73.28125 
Q 47.953125 72.359375 53.515625 70.515625 
z
" id="DejaVuSans-53"/>
     <path d="M 9.8125 72.90625 
L 19.671875 72.90625 
L 19.671875 8.296875 
L 55.171875 8.296875 
L 55.171875 0 
L 9.8125 0 
z
" id="DejaVuSans-4c"/>
     <path d="M 37.109375 75.984375 
L 37.109375 68.5 
L 28.515625 68.5 
Q 23.6875 68.5 21.796875 66.546875 
Q 19.921875 64.59375 19.921875 59.515625 
L 19.921875 54.6875 
L 34.71875 54.6875 
L 34.71875 47.703125 
L 19.921875 47.703125 
L 19.921875 0 
L 10.890625 0 
L 10.890625 47.703125 
L 2.296875 47.703125 
L 2.296875 54.6875 
L 10.890625 54.6875 
L 10.890625 58.5 
Q 10.890625 67.625 15.140625 71.796875 
Q 19.390625 75.984375 28.609375 75.984375 
z
" id="DejaVuSans-66"/>
     <path d="M 9.421875 75.984375 
L 18.40625 75.984375 
L 18.40625 0 
L 9.421875 0 
z
" id="DejaVuSans-6c"/>
     <path d="M 52 44.1875 
Q 55.375 50.25 60.0625 53.125 
Q 64.75 56 71.09375 56 
Q 79.640625 56 84.28125 50.015625 
Q 88.921875 44.046875 88.921875 33.015625 
L 88.921875 0 
L 79.890625 0 
L 79.890625 32.71875 
Q 79.890625 40.578125 77.09375 44.375 
Q 74.3125 48.1875 68.609375 48.1875 
Q 61.625 48.1875 57.5625 43.546875 
Q 53.515625 38.921875 53.515625 30.90625 
L 53.515625 0 
L 44.484375 0 
L 44.484375 32.71875 
Q 44.484375 40.625 41.703125 44.40625 
Q 38.921875 48.1875 33.109375 48.1875 
Q 26.21875 48.1875 22.15625 43.53125 
Q 18.109375 38.875 18.109375 30.90625 
L 18.109375 0 
L 9.078125 0 
L 9.078125 54.6875 
L 18.109375 54.6875 
L 18.109375 46.1875 
Q 21.1875 51.21875 25.484375 53.609375 
Q 29.78125 56 35.6875 56 
Q 41.65625 56 45.828125 52.96875 
Q 50 49.953125 52 44.1875 
z
" id="DejaVuSans-6d"/>
     <path d="M 4.890625 31.390625 
L 31.203125 31.390625 
L 31.203125 23.390625 
L 4.890625 23.390625 
z
" id="DejaVuSans-2d"/>
    </defs>
    <g transform="translate(208.2575 37.2)scale(0.16 -0.16)">
     <use xlink:href="#DejaVuSans-54"/>
     <use x="60.865234" xlink:href="#DejaVuSans-72"/>
     <use x="101.978516" xlink:href="#DejaVuSans-61"/>
     <use x="163.257812" xlink:href="#DejaVuSans-69"/>
     <use x="191.041016" xlink:href="#DejaVuSans-6e"/>
     <use x="254.419922" xlink:href="#DejaVuSans-69"/>
     <use x="282.203125" xlink:href="#DejaVuSans-6e"/>
     <use x="345.582031" xlink:href="#DejaVuSans-67"/>
     <use x="409.058594" xlink:href="#DejaVuSans-20"/>
     <use x="440.845703" xlink:href="#DejaVuSans-43"/>
     <use x="510.669922" xlink:href="#DejaVuSans-6f"/>
     <use x="571.851562" xlink:href="#DejaVuSans-6e"/>
     <use x="635.230469" xlink:href="#DejaVuSans-76"/>
     <use x="694.410156" xlink:href="#DejaVuSans-65"/>
     <use x="755.933594" xlink:href="#DejaVuSans-72"/>
     <use x="797.03125" xlink:href="#DejaVuSans-67"/>
     <use x="860.507812" xlink:href="#DejaVuSans-65"/>
     <use x="922.03125" xlink:href="#DejaVuSans-6e"/>
     <use x="985.410156" xlink:href="#DejaVuSans-63"/>
     <use x="1040.390625" xlink:href="#DejaVuSans-65"/>
     <use x="1101.914062" xlink:href="#DejaVuSans-20"/>
     <use x="1133.701172" xlink:href="#DejaVuSans-28"/>
     <use x="1172.714844" xlink:href="#DejaVuSans-50"/>
     <use x="1232.970703" xlink:href="#DejaVuSans-65"/>
     <use x="1294.494141" xlink:href="#DejaVuSans-72"/>
     <use x="1335.607422" xlink:href="#DejaVuSans-20"/>
     <use x="1367.394531" xlink:href="#DejaVuSans-53"/>
     <use x="1430.871094" xlink:href="#DejaVuSans-65"/>
     <use x="1492.394531" xlink:href="#DejaVuSans-71"/>
     <use x="1555.871094" xlink:href="#DejaVuSans-75"/>
     <use x="1619.25" xlink:href="#DejaVuSans-65"/>
     <use x="1680.773438" xlink:href="#DejaVuSans-6e"/>
     <use x="1744.152344" xlink:href="#DejaVuSans-63"/>
     <use x="1799.132812" xlink:href="#DejaVuSans-65"/>
     <use x="1860.65625" xlink:href="#DejaVuSans-20"/>
     <use x="1892.443359" xlink:href="#DejaVuSans-4c"/>
     <use x="1948.140625" xlink:href="#DejaVuSans-65"/>
     <use x="2009.664062" xlink:href="#DejaVuSans-6e"/>
     <use x="2073.042969" xlink:href="#DejaVuSans-67"/>
     <use x="2136.519531" xlink:href="#DejaVuSans-74"/>
     <use x="2175.728516" xlink:href="#DejaVuSans-68"/>
     <use x="2239.107422" xlink:href="#DejaVuSans-29"/>
     <use x="2278.121094" xlink:href="#DejaVuSans-20"/>
     <use x="2309.908203" xlink:href="#DejaVuSans-66"/>
     <use x="2345.113281" xlink:href="#DejaVuSans-6f"/>
     <use x="2406.294922" xlink:href="#DejaVuSans-72"/>
     <use x="2447.408203" xlink:href="#DejaVuSans-20"/>
     <use x="2479.195312" xlink:href="#DejaVuSans-6c"/>
     <use x="2506.978516" xlink:href="#DejaVuSans-73"/>
     <use x="2559.078125" xlink:href="#DejaVuSans-74"/>
     <use x="2598.287109" xlink:href="#DejaVuSans-6d"/>
     <use x="2695.699219" xlink:href="#DejaVuSans-2d"/>
     <use x="2731.783203" xlink:href="#DejaVuSans-6e"/>
     <use x="2795.162109" xlink:href="#DejaVuSans-74"/>
     <use x="2834.371094" xlink:href="#DejaVuSans-6d"/>
    </g>
   </g>
   <g id="legend_1">
    <g id="patch_7">
     <path d="M 703.417187 344.7625 
L 770.6 344.7625 
Q 772.6 344.7625 772.6 342.7625 
L 772.6 50.2 
Q 772.6 48.2 770.6 48.2 
L 703.417187 48.2 
Q 701.417187 48.2 701.417187 50.2 
L 701.417187 342.7625 
Q 701.417187 344.7625 703.417187 344.7625 
z
" style="fill:#ffffff;opacity:0.8;stroke:#cccccc;stroke-linejoin:miter;"/>
    </g>
    <g id="line2d_46">
     <path d="M 705.417187 56.298437 
L 725.417187 56.298437 
" style="fill:none;stroke:#1f77b4;stroke-linecap:square;stroke-width:1.5;"/>
    </g>
    <g id="line2d_47"/>
    <g id="text_29">
     <!-- Seq-1 -->
     <g transform="translate(733.417187 59.798437)scale(0.1 -0.1)">
      <use xlink:href="#DejaVuSans-53"/>
      <use x="63.476562" xlink:href="#DejaVuSans-65"/>
      <use x="125" xlink:href="#DejaVuSans-71"/>
      <use x="188.476562" xlink:href="#DejaVuSans-2d"/>
      <use x="224.560547" xlink:href="#DejaVuSans-31"/>
     </g>
    </g>
    <g id="line2d_48">
     <path d="M 705.417187 70.976562 
L 725.417187 70.976562 
" style="fill:none;stroke:#ff7f0e;stroke-linecap:square;stroke-width:1.5;"/>
    </g>
    <g id="line2d_49"/>
    <g id="text_30">
     <!-- Seq-2 -->
     <g transform="translate(733.417187 74.476562)scale(0.1 -0.1)">
      <use xlink:href="#DejaVuSans-53"/>
      <use x="63.476562" xlink:href="#DejaVuSans-65"/>
      <use x="125" xlink:href="#DejaVuSans-71"/>
      <use x="188.476562" xlink:href="#DejaVuSans-2d"/>
      <use x="224.560547" xlink:href="#DejaVuSans-32"/>
     </g>
    </g>
    <g id="line2d_50">
     <path d="M 705.417187 85.654688 
L 725.417187 85.654688 
" style="fill:none;stroke:#2ca02c;stroke-linecap:square;stroke-width:1.5;"/>
    </g>
    <g id="line2d_51"/>
    <g id="text_31">
     <!-- Seq-3 -->
     <g transform="translate(733.417187 89.154688)scale(0.1 -0.1)">
      <use xlink:href="#DejaVuSans-53"/>
      <use x="63.476562" xlink:href="#DejaVuSans-65"/>
      <use x="125" xlink:href="#DejaVuSans-71"/>
      <use x="188.476562" xlink:href="#DejaVuSans-2d"/>
      <use x="224.560547" xlink:href="#DejaVuSans-33"/>
     </g>
    </g>
    <g id="line2d_52">
     <path d="M 705.417187 100.332812 
L 725.417187 100.332812 
" style="fill:none;stroke:#d62728;stroke-linecap:square;stroke-width:1.5;"/>
    </g>
    <g id="line2d_53"/>
    <g id="text_32">
     <!-- Seq-4 -->
     <g transform="translate(733.417187 103.832812)scale(0.1 -0.1)">
      <use xlink:href="#DejaVuSans-53"/>
      <use x="63.476562" xlink:href="#DejaVuSans-65"/>
      <use x="125" xlink:href="#DejaVuSans-71"/>
      <use x="188.476562" xlink:href="#DejaVuSans-2d"/>
      <use x="224.560547" xlink:href="#DejaVuSans-34"/>
     </g>
    </g>
    <g id="line2d_54">
     <path d="M 705.417187 115.010938 
L 725.417187 115.010938 
" style="fill:none;stroke:#9467bd;stroke-linecap:square;stroke-width:1.5;"/>
    </g>
    <g id="line2d_55"/>
    <g id="text_33">
     <!-- Seq-5 -->
     <g transform="translate(733.417187 118.510938)scale(0.1 -0.1)">
      <use xlink:href="#DejaVuSans-53"/>
      <use x="63.476562" xlink:href="#DejaVuSans-65"/>
      <use x="125" xlink:href="#DejaVuSans-71"/>
      <use x="188.476562" xlink:href="#DejaVuSans-2d"/>
      <use x="224.560547" xlink:href="#DejaVuSans-35"/>
     </g>
    </g>
    <g id="line2d_56">
     <path d="M 705.417187 129.689062 
L 725.417187 129.689062 
" style="fill:none;stroke:#8c564b;stroke-linecap:square;stroke-width:1.5;"/>
    </g>
    <g id="line2d_57"/>
    <g id="text_34">
     <!-- Seq-6 -->
     <g transform="translate(733.417187 133.189062)scale(0.1 -0.1)">
      <use xlink:href="#DejaVuSans-53"/>
      <use x="63.476562" xlink:href="#DejaVuSans-65"/>
      <use x="125" xlink:href="#DejaVuSans-71"/>
      <use x="188.476562" xlink:href="#DejaVuSans-2d"/>
      <use x="224.560547" xlink:href="#DejaVuSans-36"/>
     </g>
    </g>
    <g id="line2d_58">
     <path d="M 705.417187 144.367188 
L 725.417187 144.367188 
" style="fill:none;stroke:#e377c2;stroke-linecap:square;stroke-width:1.5;"/>
    </g>
    <g id="line2d_59"/>
    <g id="text_35">
     <!-- Seq-7 -->
     <g transform="translate(733.417187 147.867188)scale(0.1 -0.1)">
      <use xlink:href="#DejaVuSans-53"/>
      <use x="63.476562" xlink:href="#DejaVuSans-65"/>
      <use x="125" xlink:href="#DejaVuSans-71"/>
      <use x="188.476562" xlink:href="#DejaVuSans-2d"/>
      <use x="224.560547" xlink:href="#DejaVuSans-37"/>
     </g>
    </g>
    <g id="line2d_60">
     <path d="M 705.417187 159.045312 
L 725.417187 159.045312 
" style="fill:none;stroke:#7f7f7f;stroke-linecap:square;stroke-width:1.5;"/>
    </g>
    <g id="line2d_61"/>
    <g id="text_36">
     <!-- Seq-8 -->
     <defs>
      <path d="M 31.78125 34.625 
Q 24.75 34.625 20.71875 30.859375 
Q 16.703125 27.09375 16.703125 20.515625 
Q 16.703125 13.921875 20.71875 10.15625 
Q 24.75 6.390625 31.78125 6.390625 
Q 38.8125 6.390625 42.859375 10.171875 
Q 46.921875 13.96875 46.921875 20.515625 
Q 46.921875 27.09375 42.890625 30.859375 
Q 38.875 34.625 31.78125 34.625 
z
M 21.921875 38.8125 
Q 15.578125 40.375 12.03125 44.71875 
Q 8.5 49.078125 8.5 55.328125 
Q 8.5 64.0625 14.71875 69.140625 
Q 20.953125 74.21875 31.78125 74.21875 
Q 42.671875 74.21875 48.875 69.140625 
Q 55.078125 64.0625 55.078125 55.328125 
Q 55.078125 49.078125 51.53125 44.71875 
Q 48 40.375 41.703125 38.8125 
Q 48.828125 37.15625 52.796875 32.3125 
Q 56.78125 27.484375 56.78125 20.515625 
Q 56.78125 9.90625 50.3125 4.234375 
Q 43.84375 -1.421875 31.78125 -1.421875 
Q 19.734375 -1.421875 13.25 4.234375 
Q 6.78125 9.90625 6.78125 20.515625 
Q 6.78125 27.484375 10.78125 32.3125 
Q 14.796875 37.15625 21.921875 38.8125 
z
M 18.3125 54.390625 
Q 18.3125 48.734375 21.84375 45.5625 
Q 25.390625 42.390625 31.78125 42.390625 
Q 38.140625 42.390625 41.71875 45.5625 
Q 45.3125 48.734375 45.3125 54.390625 
Q 45.3125 60.0625 41.71875 63.234375 
Q 38.140625 66.40625 31.78125 66.40625 
Q 25.390625 66.40625 21.84375 63.234375 
Q 18.3125 60.0625 18.3125 54.390625 
z
" id="DejaVuSans-38"/>
     </defs>
     <g transform="translate(733.417187 162.545312)scale(0.1 -0.1)">
      <use xlink:href="#DejaVuSans-53"/>
      <use x="63.476562" xlink:href="#DejaVuSans-65"/>
      <use x="125" xlink:href="#DejaVuSans-71"/>
      <use x="188.476562" xlink:href="#DejaVuSans-2d"/>
      <use x="224.560547" xlink:href="#DejaVuSans-38"/>
     </g>
    </g>
    <g id="line2d_62">
     <path d="M 705.417187 173.723437 
L 725.417187 173.723437 
" style="fill:none;stroke:#bcbd22;stroke-linecap:square;stroke-width:1.5;"/>
    </g>
    <g id="line2d_63"/>
    <g id="text_37">
     <!-- Seq-9 -->
     <defs>
      <path d="M 10.984375 1.515625 
L 10.984375 10.5 
Q 14.703125 8.734375 18.5 7.8125 
Q 22.3125 6.890625 25.984375 6.890625 
Q 35.75 6.890625 40.890625 13.453125 
Q 46.046875 20.015625 46.78125 33.40625 
Q 43.953125 29.203125 39.59375 26.953125 
Q 35.25 24.703125 29.984375 24.703125 
Q 19.046875 24.703125 12.671875 31.3125 
Q 6.296875 37.9375 6.296875 49.421875 
Q 6.296875 60.640625 12.9375 67.421875 
Q 19.578125 74.21875 30.609375 74.21875 
Q 43.265625 74.21875 49.921875 64.515625 
Q 56.59375 54.828125 56.59375 36.375 
Q 56.59375 19.140625 48.40625 8.859375 
Q 40.234375 -1.421875 26.421875 -1.421875 
Q 22.703125 -1.421875 18.890625 -0.6875 
Q 15.09375 0.046875 10.984375 1.515625 
z
M 30.609375 32.421875 
Q 37.25 32.421875 41.125 36.953125 
Q 45.015625 41.5 45.015625 49.421875 
Q 45.015625 57.28125 41.125 61.84375 
Q 37.25 66.40625 30.609375 66.40625 
Q 23.96875 66.40625 20.09375 61.84375 
Q 16.21875 57.28125 16.21875 49.421875 
Q 16.21875 41.5 20.09375 36.953125 
Q 23.96875 32.421875 30.609375 32.421875 
z
" id="DejaVuSans-39"/>
     </defs>
     <g transform="translate(733.417187 177.223437)scale(0.1 -0.1)">
      <use xlink:href="#DejaVuSans-53"/>
      <use x="63.476562" xlink:href="#DejaVuSans-65"/>
      <use x="125" xlink:href="#DejaVuSans-71"/>
      <use x="188.476562" xlink:href="#DejaVuSans-2d"/>
      <use x="224.560547" xlink:href="#DejaVuSans-39"/>
     </g>
    </g>
    <g id="line2d_64">
     <path d="M 705.417187 188.401562 
L 725.417187 188.401562 
" style="fill:none;stroke:#17becf;stroke-linecap:square;stroke-width:1.5;"/>
    </g>
    <g id="line2d_65"/>
    <g id="text_38">
     <!-- Seq-10 -->
     <g transform="translate(733.417187 191.901562)scale(0.1 -0.1)">
      <use xlink:href="#DejaVuSans-53"/>
      <use x="63.476562" xlink:href="#DejaVuSans-65"/>
      <use x="125" xlink:href="#DejaVuSans-71"/>
      <use x="188.476562" xlink:href="#DejaVuSans-2d"/>
      <use x="224.560547" xlink:href="#DejaVuSans-31"/>
      <use x="288.183594" xlink:href="#DejaVuSans-30"/>
     </g>
    </g>
    <g id="line2d_66">
     <path d="M 705.417187 203.079687 
L 725.417187 203.079687 
" style="fill:none;stroke:#1f77b4;stroke-linecap:square;stroke-width:1.5;"/>
    </g>
    <g id="line2d_67"/>
    <g id="text_39">
     <!-- Seq-11 -->
     <g transform="translate(733.417187 206.579687)scale(0.1 -0.1)">
      <use xlink:href="#DejaVuSans-53"/>
      <use x="63.476562" xlink:href="#DejaVuSans-65"/>
      <use x="125" xlink:href="#DejaVuSans-71"/>
      <use x="188.476562" xlink:href="#DejaVuSans-2d"/>
      <use x="224.560547" xlink:href="#DejaVuSans-31"/>
      <use x="288.183594" xlink:href="#DejaVuSans-31"/>
     </g>
    </g>
    <g id="line2d_68">
     <path d="M 705.417187 217.757812 
L 725.417187 217.757812 
" style="fill:none;stroke:#ff7f0e;stroke-linecap:square;stroke-width:1.5;"/>
    </g>
    <g id="line2d_69"/>
    <g id="text_40">
     <!-- Seq-12 -->
     <g transform="translate(733.417187 221.257812)scale(0.1 -0.1)">
      <use xlink:href="#DejaVuSans-53"/>
      <use x="63.476562" xlink:href="#DejaVuSans-65"/>
      <use x="125" xlink:href="#DejaVuSans-71"/>
      <use x="188.476562" xlink:href="#DejaVuSans-2d"/>
      <use x="224.560547" xlink:href="#DejaVuSans-31"/>
      <use x="288.183594" xlink:href="#DejaVuSans-32"/>
     </g>
    </g>
    <g id="line2d_70">
     <path d="M 705.417187 232.435937 
L 725.417187 232.435937 
" style="fill:none;stroke:#2ca02c;stroke-linecap:square;stroke-width:1.5;"/>
    </g>
    <g id="line2d_71"/>
    <g id="text_41">
     <!-- Seq-13 -->
     <g transform="translate(733.417187 235.935937)scale(0.1 -0.1)">
      <use xlink:href="#DejaVuSans-53"/>
      <use x="63.476562" xlink:href="#DejaVuSans-65"/>
      <use x="125" xlink:href="#DejaVuSans-71"/>
      <use x="188.476562" xlink:href="#DejaVuSans-2d"/>
      <use x="224.560547" xlink:href="#DejaVuSans-31"/>
      <use x="288.183594" xlink:href="#DejaVuSans-33"/>
     </g>
    </g>
    <g id="line2d_72">
     <path d="M 705.417187 247.114062 
L 725.417187 247.114062 
" style="fill:none;stroke:#d62728;stroke-linecap:square;stroke-width:1.5;"/>
    </g>
    <g id="line2d_73"/>
    <g id="text_42">
     <!-- Seq-14 -->
     <g transform="translate(733.417187 250.614062)scale(0.1 -0.1)">
      <use xlink:href="#DejaVuSans-53"/>
      <use x="63.476562" xlink:href="#DejaVuSans-65"/>
      <use x="125" xlink:href="#DejaVuSans-71"/>
      <use x="188.476562" xlink:href="#DejaVuSans-2d"/>
      <use x="224.560547" xlink:href="#DejaVuSans-31"/>
      <use x="288.183594" xlink:href="#DejaVuSans-34"/>
     </g>
    </g>
    <g id="line2d_74">
     <path d="M 705.417187 261.792187 
L 725.417187 261.792187 
" style="fill:none;stroke:#9467bd;stroke-linecap:square;stroke-width:1.5;"/>
    </g>
    <g id="line2d_75"/>
    <g id="text_43">
     <!-- Seq-15 -->
     <g transform="translate(733.417187 265.292187)scale(0.1 -0.1)">
      <use xlink:href="#DejaVuSans-53"/>
      <use x="63.476562" xlink:href="#DejaVuSans-65"/>
      <use x="125" xlink:href="#DejaVuSans-71"/>
      <use x="188.476562" xlink:href="#DejaVuSans-2d"/>
      <use x="224.560547" xlink:href="#DejaVuSans-31"/>
      <use x="288.183594" xlink:href="#DejaVuSans-35"/>
     </g>
    </g>
    <g id="line2d_76">
     <path d="M 705.417187 276.470312 
L 725.417187 276.470312 
" style="fill:none;stroke:#8c564b;stroke-linecap:square;stroke-width:1.5;"/>
    </g>
    <g id="line2d_77"/>
    <g id="text_44">
     <!-- Seq-16 -->
     <g transform="translate(733.417187 279.970312)scale(0.1 -0.1)">
      <use xlink:href="#DejaVuSans-53"/>
      <use x="63.476562" xlink:href="#DejaVuSans-65"/>
      <use x="125" xlink:href="#DejaVuSans-71"/>
      <use x="188.476562" xlink:href="#DejaVuSans-2d"/>
      <use x="224.560547" xlink:href="#DejaVuSans-31"/>
      <use x="288.183594" xlink:href="#DejaVuSans-36"/>
     </g>
    </g>
    <g id="line2d_78">
     <path d="M 705.417187 291.148437 
L 725.417187 291.148437 
" style="fill:none;stroke:#e377c2;stroke-linecap:square;stroke-width:1.5;"/>
    </g>
    <g id="line2d_79"/>
    <g id="text_45">
     <!-- Seq-17 -->
     <g transform="translate(733.417187 294.648437)scale(0.1 -0.1)">
      <use xlink:href="#DejaVuSans-53"/>
      <use x="63.476562" xlink:href="#DejaVuSans-65"/>
      <use x="125" xlink:href="#DejaVuSans-71"/>
      <use x="188.476562" xlink:href="#DejaVuSans-2d"/>
      <use x="224.560547" xlink:href="#DejaVuSans-31"/>
      <use x="288.183594" xlink:href="#DejaVuSans-37"/>
     </g>
    </g>
    <g id="line2d_80">
     <path d="M 705.417187 305.826562 
L 725.417187 305.826562 
" style="fill:none;stroke:#7f7f7f;stroke-linecap:square;stroke-width:1.5;"/>
    </g>
    <g id="line2d_81"/>
    <g id="text_46">
     <!-- Seq-18 -->
     <g transform="translate(733.417187 309.326562)scale(0.1 -0.1)">
      <use xlink:href="#DejaVuSans-53"/>
      <use x="63.476562" xlink:href="#DejaVuSans-65"/>
      <use x="125" xlink:href="#DejaVuSans-71"/>
      <use x="188.476562" xlink:href="#DejaVuSans-2d"/>
      <use x="224.560547" xlink:href="#DejaVuSans-31"/>
      <use x="288.183594" xlink:href="#DejaVuSans-38"/>
     </g>
    </g>
    <g id="line2d_82">
     <path d="M 705.417187 320.504687 
L 725.417187 320.504687 
" style="fill:none;stroke:#bcbd22;stroke-linecap:square;stroke-width:1.5;"/>
    </g>
    <g id="line2d_83"/>
    <g id="text_47">
     <!-- Seq-19 -->
     <g transform="translate(733.417187 324.004687)scale(0.1 -0.1)">
      <use xlink:href="#DejaVuSans-53"/>
      <use x="63.476562" xlink:href="#DejaVuSans-65"/>
      <use x="125" xlink:href="#DejaVuSans-71"/>
      <use x="188.476562" xlink:href="#DejaVuSans-2d"/>
      <use x="224.560547" xlink:href="#DejaVuSans-31"/>
      <use x="288.183594" xlink:href="#DejaVuSans-39"/>
     </g>
    </g>
    <g id="line2d_84">
     <path d="M 705.417187 335.182812 
L 725.417187 335.182812 
" style="fill:none;stroke:#17becf;stroke-linecap:square;stroke-width:1.5;"/>
    </g>
    <g id="line2d_85"/>
    <g id="text_48">
     <!-- Seq-20 -->
     <g transform="translate(733.417187 338.682812)scale(0.1 -0.1)">
      <use xlink:href="#DejaVuSans-53"/>
      <use x="63.476562" xlink:href="#DejaVuSans-65"/>
      <use x="125" xlink:href="#DejaVuSans-71"/>
      <use x="188.476562" xlink:href="#DejaVuSans-2d"/>
      <use x="224.560547" xlink:href="#DejaVuSans-32"/>
      <use x="288.183594" xlink:href="#DejaVuSans-30"/>
     </g>
    </g>
   </g>
  </g>
 </g>
 <defs>
  <clipPath id="pb422cf2889">
   <rect height="277.2" width="669.6" x="108" y="43.2"/>
  </clipPath>
 </defs>
</svg>
